<svg xmlns="http://www.w3.org/2000/svg" xmlns:xlink="http://www.w3.org/1999/xlink" width="1080" zoomAndPan="magnify" viewBox="0 0 810 809.999993" height="1080" preserveAspectRatio="xMidYMid meet" version="1.0"><defs><clipPath id="565bf6dfbf"><path d="M 17.722656 453 L 792 453 L 792 736 L 17.722656 736 Z M 17.722656 453 " clip-rule="nonzero"/></clipPath></defs><rect x="-81" width="972" fill="#ffffff" y="-80.999999" height="971.999992" fill-opacity="1"/><rect x="-81" width="972" fill="#ffffff" y="-80.999999" height="971.999992" fill-opacity="1"/><path fill="#000000" d="M 360.492188 281.875 L 415.730469 281.875 L 415.730469 337.128906 C 415.730469 338.035156 415.820312 338.933594 415.996094 339.824219 C 416.175781 340.714844 416.4375 341.578125 416.78125 342.414062 C 417.128906 343.253906 417.554688 344.050781 418.058594 344.804688 C 418.5625 345.558594 419.136719 346.253906 419.777344 346.894531 C 420.417969 347.539062 421.117188 348.109375 421.871094 348.613281 C 422.625 349.117188 423.417969 349.542969 424.257812 349.890625 C 425.09375 350.238281 425.957031 350.5 426.847656 350.675781 C 427.738281 350.855469 428.636719 350.941406 429.542969 350.941406 L 540.023438 350.941406 C 540.929688 350.941406 541.828125 350.855469 542.71875 350.675781 C 543.605469 350.5 544.46875 350.238281 545.308594 349.890625 C 546.144531 349.542969 546.941406 349.117188 547.695312 348.613281 C 548.449219 348.109375 549.148438 347.539062 549.789062 346.894531 C 550.429688 346.253906 551.003906 345.558594 551.507812 344.804688 C 552.011719 344.050781 552.433594 343.253906 552.78125 342.414062 C 553.128906 341.578125 553.390625 340.714844 553.566406 339.824219 C 553.746094 338.933594 553.832031 338.035156 553.832031 337.128906 L 553.832031 281.875 L 609.074219 281.875 C 609.980469 281.875 610.878906 281.785156 611.769531 281.609375 C 612.65625 281.433594 613.519531 281.171875 614.359375 280.824219 C 615.195312 280.476562 615.992188 280.050781 616.746094 279.546875 C 617.5 279.042969 618.199219 278.46875 618.839844 277.828125 C 619.480469 277.1875 620.054688 276.488281 620.558594 275.734375 C 621.0625 274.980469 621.484375 274.1875 621.832031 273.347656 C 622.179688 272.511719 622.441406 271.644531 622.617188 270.757812 C 622.796875 269.867188 622.882812 268.96875 622.882812 268.0625 L 622.882812 157.554688 C 622.882812 156.648438 622.796875 155.75 622.617188 154.859375 C 622.441406 153.96875 622.179688 153.105469 621.832031 152.269531 C 621.484375 151.429688 621.0625 150.632812 620.558594 149.878906 C 620.054688 149.125 619.480469 148.429688 618.839844 147.785156 C 618.199219 147.144531 617.5 146.574219 616.746094 146.070312 C 615.992188 145.566406 615.195312 145.140625 614.359375 144.792969 C 613.519531 144.445312 612.65625 144.183594 611.769531 144.007812 C 610.878906 143.828125 609.980469 143.742188 609.074219 143.742188 L 553.832031 143.742188 L 553.832031 88.488281 C 553.832031 87.582031 553.746094 86.683594 553.566406 85.792969 C 553.390625 84.902344 553.128906 84.039062 552.78125 83.199219 C 552.433594 82.363281 552.007812 81.566406 551.507812 80.8125 C 551.003906 80.058594 550.429688 79.359375 549.789062 78.71875 C 549.148438 78.078125 548.449219 77.503906 547.695312 77 C 546.941406 76.496094 546.144531 76.070312 545.308594 75.726562 C 544.46875 75.378906 543.605469 75.117188 542.71875 74.9375 C 541.828125 74.761719 540.929688 74.671875 540.023438 74.671875 L 429.542969 74.671875 C 428.636719 74.671875 427.738281 74.761719 426.847656 74.9375 C 425.957031 75.117188 425.09375 75.378906 424.257812 75.726562 C 423.417969 76.074219 422.625 76.496094 421.871094 77 C 421.117188 77.503906 420.417969 78.078125 419.777344 78.71875 C 419.136719 79.359375 418.5625 80.058594 418.058594 80.8125 C 417.554688 81.566406 417.128906 82.363281 416.78125 83.199219 C 416.4375 84.039062 416.175781 84.902344 415.996094 85.792969 C 415.820312 86.683594 415.730469 87.582031 415.730469 88.488281 L 415.730469 143.742188 L 360.492188 143.742188 C 359.585938 143.742188 358.6875 143.828125 357.796875 144.007812 C 356.90625 144.183594 356.042969 144.445312 355.207031 144.792969 C 354.367188 145.140625 353.574219 145.566406 352.820312 146.070312 C 352.066406 146.574219 351.367188 147.144531 350.726562 147.785156 C 350.085938 148.429688 349.511719 149.125 349.007812 149.878906 C 348.503906 150.632812 348.078125 151.429688 347.730469 152.269531 C 347.386719 153.105469 347.125 153.96875 346.945312 154.859375 C 346.769531 155.75 346.679688 156.648438 346.679688 157.554688 L 346.679688 268.0625 C 346.679688 268.96875 346.769531 269.867188 346.945312 270.757812 C 347.125 271.644531 347.386719 272.511719 347.730469 273.347656 C 348.078125 274.1875 348.503906 274.980469 349.007812 275.734375 C 349.511719 276.488281 350.085938 277.1875 350.726562 277.828125 C 351.367188 278.46875 352.066406 279.042969 352.820312 279.546875 C 353.574219 280.050781 354.367188 280.476562 355.207031 280.824219 C 356.042969 281.171875 356.90625 281.433594 357.796875 281.609375 C 358.6875 281.785156 359.585938 281.875 360.492188 281.875 Z M 374.300781 171.367188 L 429.542969 171.367188 C 430.449219 171.367188 431.347656 171.277344 432.234375 171.101562 C 433.125 170.925781 433.988281 170.664062 434.828125 170.316406 C 435.664062 169.96875 436.460938 169.542969 437.214844 169.039062 C 437.96875 168.535156 438.667969 167.964844 439.308594 167.320312 C 439.949219 166.679688 440.519531 165.984375 441.023438 165.230469 C 441.527344 164.472656 441.953125 163.679688 442.300781 162.839844 C 442.648438 162.003906 442.910156 161.140625 443.085938 160.25 C 443.265625 159.359375 443.351562 158.460938 443.351562 157.554688 L 443.351562 102.300781 L 526.214844 102.300781 L 526.214844 157.554688 C 526.214844 158.460938 526.300781 159.359375 526.476562 160.25 C 526.65625 161.140625 526.917969 162.003906 527.265625 162.839844 C 527.609375 163.679688 528.035156 164.472656 528.539062 165.230469 C 529.042969 165.984375 529.617188 166.679688 530.257812 167.320312 C 530.898438 167.964844 531.597656 168.535156 532.351562 169.039062 C 533.105469 169.542969 533.902344 169.96875 534.738281 170.316406 C 535.574219 170.664062 536.441406 170.925781 537.328125 171.101562 C 538.21875 171.277344 539.117188 171.367188 540.023438 171.367188 L 595.265625 171.367188 L 595.265625 254.25 L 540.023438 254.25 C 539.117188 254.25 538.21875 254.335938 537.328125 254.515625 C 536.441406 254.691406 535.574219 254.953125 534.738281 255.300781 C 533.902344 255.648438 533.105469 256.074219 532.351562 256.578125 C 531.597656 257.082031 530.898438 257.652344 530.257812 258.292969 C 529.617188 258.933594 529.042969 259.632812 528.539062 260.386719 C 528.035156 261.140625 527.613281 261.9375 527.265625 262.777344 C 526.917969 263.613281 526.65625 264.476562 526.476562 265.367188 C 526.300781 266.257812 526.214844 267.15625 526.214844 268.0625 L 526.214844 323.316406 L 443.351562 323.316406 L 443.351562 268.0625 C 443.351562 267.15625 443.265625 266.257812 443.085938 265.367188 C 442.910156 264.476562 442.648438 263.613281 442.300781 262.777344 C 441.953125 261.9375 441.527344 261.140625 441.023438 260.386719 C 440.519531 259.632812 439.949219 258.933594 439.308594 258.292969 C 438.667969 257.652344 437.96875 257.082031 437.214844 256.578125 C 436.460938 256.074219 435.664062 255.648438 434.828125 255.300781 C 433.988281 254.953125 433.125 254.691406 432.234375 254.515625 C 431.347656 254.335938 430.449219 254.25 429.542969 254.25 L 374.300781 254.25 Z M 374.300781 171.367188 " fill-opacity="1" fill-rule="nonzero"/><g clip-path="url(#565bf6dfbf)"><path fill="#000000" d="M 769.148438 463.796875 C 767.457031 462.53125 765.695312 461.371094 763.867188 460.3125 C 762.035156 459.253906 760.152344 458.308594 758.210938 457.472656 C 756.269531 456.636719 754.285156 455.917969 752.261719 455.316406 C 750.234375 454.714844 748.183594 454.234375 746.097656 453.875 C 744.015625 453.515625 741.921875 453.28125 739.8125 453.171875 C 737.703125 453.058594 735.59375 453.074219 733.484375 453.210938 C 731.375 453.347656 729.28125 453.609375 727.203125 453.992188 C 725.125 454.378906 723.078125 454.882812 721.0625 455.511719 L 550.242188 507.378906 C 534.488281 512.1875 518.378906 514.585938 501.90625 514.578125 L 412.695312 514.578125 C 411.644531 512.507812 410.457031 510.523438 409.132812 508.621094 C 407.8125 506.71875 406.363281 504.914062 404.792969 503.210938 C 403.21875 501.503906 401.539062 499.917969 399.75 498.445312 C 397.957031 496.972656 396.074219 495.628906 394.101562 494.414062 C 392.125 493.203125 390.078125 492.128906 387.953125 491.199219 C 385.832031 490.269531 383.652344 489.488281 381.421875 488.855469 C 379.191406 488.226562 376.929688 487.75 374.632812 487.429688 C 372.339844 487.109375 370.03125 486.949219 367.714844 486.949219 L 155.824219 486.949219 L 155.824219 473.136719 C 155.824219 472.230469 155.734375 471.332031 155.558594 470.441406 C 155.382812 469.550781 155.121094 468.6875 154.773438 467.851562 C 154.425781 467.011719 154 466.214844 153.496094 465.460938 C 152.992188 464.707031 152.421875 464.007812 151.78125 463.367188 C 151.136719 462.726562 150.441406 462.15625 149.6875 461.652344 C 148.933594 461.148438 148.136719 460.722656 147.300781 460.375 C 146.460938 460.027344 145.597656 459.765625 144.707031 459.589844 C 143.820312 459.410156 142.921875 459.324219 142.015625 459.324219 L 31.53125 459.324219 C 30.625 459.324219 29.726562 459.410156 28.839844 459.589844 C 27.949219 459.765625 27.085938 460.027344 26.25 460.375 C 25.410156 460.722656 24.613281 461.148438 23.859375 461.652344 C 23.105469 462.15625 22.410156 462.726562 21.769531 463.367188 C 21.125 464.007812 20.554688 464.707031 20.050781 465.460938 C 19.546875 466.214844 19.121094 467.011719 18.773438 467.851562 C 18.425781 468.6875 18.164062 469.550781 17.988281 470.441406 C 17.8125 471.332031 17.722656 472.230469 17.722656 473.136719 L 17.722656 721.777344 C 17.722656 722.683594 17.8125 723.582031 17.988281 724.472656 C 18.164062 725.363281 18.425781 726.226562 18.773438 727.0625 C 19.121094 727.902344 19.546875 728.699219 20.050781 729.453125 C 20.554688 730.207031 21.125 730.902344 21.769531 731.546875 C 22.410156 732.1875 23.105469 732.757812 23.859375 733.261719 C 24.613281 733.765625 25.410156 734.191406 26.25 734.539062 C 27.085938 734.886719 27.949219 735.148438 28.839844 735.324219 C 29.726562 735.503906 30.625 735.589844 31.53125 735.589844 L 142.015625 735.589844 C 142.921875 735.589844 143.820312 735.503906 144.707031 735.324219 C 145.597656 735.148438 146.460938 734.886719 147.300781 734.539062 C 148.136719 734.191406 148.933594 733.765625 149.6875 733.261719 C 150.441406 732.757812 151.136719 732.1875 151.78125 731.546875 C 152.421875 730.902344 152.992188 730.207031 153.496094 729.453125 C 154 728.699219 154.425781 727.902344 154.773438 727.0625 C 155.121094 726.226562 155.382812 725.363281 155.558594 724.472656 C 155.734375 723.582031 155.824219 722.683594 155.824219 721.777344 L 155.824219 707.964844 L 404.40625 707.964844 C 411.3125 708.558594 751.886719 558.695312 758.238281 557.203125 C 760.417969 556.265625 762.53125 555.191406 764.570312 553.976562 C 766.613281 552.761719 768.566406 551.417969 770.429688 549.949219 C 772.292969 548.476562 774.054688 546.890625 775.710938 545.1875 C 777.367188 543.484375 778.90625 541.683594 780.324219 539.777344 C 781.746094 537.875 783.035156 535.882812 784.191406 533.8125 C 785.351562 531.738281 786.367188 529.597656 787.246094 527.390625 C 788.125 525.183594 788.851562 522.925781 789.433594 520.625 C 790.015625 518.320312 790.445312 515.988281 790.71875 513.628906 C 790.996094 511.269531 791.117188 508.902344 791.082031 506.527344 C 791.042969 504.152344 790.855469 501.789062 790.507812 499.441406 C 790.164062 497.089844 789.664062 494.773438 789.015625 492.488281 C 788.367188 490.203125 787.570312 487.972656 786.628906 485.789062 C 785.683594 483.609375 784.601562 481.5 783.382812 479.464844 C 782.164062 477.425781 780.816406 475.476562 779.339844 473.613281 C 777.867188 471.753906 776.273438 469.996094 774.566406 468.34375 C 772.863281 466.691406 771.054688 465.15625 769.148438 463.742188 Z M 128.203125 708.019531 L 45.34375 708.019531 L 45.34375 487.003906 L 128.203125 487.003906 Z M 747.339844 531.871094 L 401.5625 680.390625 L 155.824219 680.390625 L 155.824219 514.632812 L 367.769531 514.632812 C 368.515625 514.632812 369.261719 514.667969 370.007812 514.742188 C 370.75 514.816406 371.488281 514.925781 372.222656 515.074219 C 372.953125 515.21875 373.679688 515.398438 374.394531 515.617188 C 375.109375 515.835938 375.8125 516.085938 376.503906 516.375 C 377.195312 516.660156 377.867188 516.980469 378.527344 517.332031 C 379.1875 517.683594 379.828125 518.066406 380.449219 518.484375 C 381.070312 518.898438 381.667969 519.34375 382.246094 519.820312 C 382.824219 520.292969 383.378906 520.792969 383.90625 521.324219 C 384.4375 521.851562 384.9375 522.40625 385.410156 522.984375 C 385.886719 523.5625 386.332031 524.160156 386.746094 524.78125 C 387.160156 525.402344 387.546875 526.042969 387.898438 526.703125 C 388.25 527.363281 388.570312 528.039062 388.855469 528.730469 C 389.140625 529.417969 389.394531 530.121094 389.609375 530.839844 C 389.828125 531.554688 390.011719 532.277344 390.15625 533.011719 C 390.300781 533.746094 390.414062 534.484375 390.484375 535.226562 C 390.558594 535.972656 390.597656 536.71875 390.597656 537.464844 C 390.597656 538.980469 390.519531 540.488281 390.371094 541.996094 C 390.222656 543.503906 390 544.996094 389.703125 546.480469 C 389.40625 547.964844 389.039062 549.433594 388.597656 550.882812 C 388.15625 552.328125 387.648438 553.753906 387.066406 555.152344 C 386.488281 556.550781 385.839844 557.917969 385.128906 559.25 C 384.414062 560.585938 383.636719 561.882812 382.792969 563.140625 C 381.953125 564.398438 381.054688 565.613281 380.09375 566.785156 C 379.132812 567.953125 378.117188 569.074219 377.046875 570.144531 C 375.976562 571.214844 374.855469 572.230469 373.6875 573.191406 C 372.515625 574.152344 371.304688 575.054688 370.042969 575.894531 C 368.785156 576.734375 367.492188 577.511719 366.15625 578.226562 C 364.820312 578.941406 363.453125 579.589844 362.058594 580.167969 C 360.660156 580.75 359.234375 581.257812 357.789062 581.699219 C 356.339844 582.140625 354.875 582.507812 353.390625 582.804688 C 351.90625 583.101562 350.410156 583.324219 348.902344 583.472656 C 347.398438 583.621094 345.886719 583.695312 344.375 583.699219 L 249.898438 583.699219 C 248.992188 583.699219 248.09375 583.785156 247.207031 583.964844 C 246.316406 584.140625 245.453125 584.402344 244.613281 584.75 C 243.777344 585.097656 242.980469 585.523438 242.226562 586.027344 C 241.472656 586.53125 240.773438 587.101562 240.132812 587.746094 C 239.492188 588.386719 238.921875 589.082031 238.417969 589.835938 C 237.914062 590.589844 237.488281 591.386719 237.140625 592.226562 C 236.792969 593.0625 236.53125 593.925781 236.355469 594.816406 C 236.175781 595.707031 236.089844 596.605469 236.089844 597.511719 C 236.089844 598.417969 236.175781 599.316406 236.355469 600.207031 C 236.53125 601.097656 236.792969 601.960938 237.140625 602.796875 C 237.488281 603.636719 237.914062 604.433594 238.417969 605.1875 C 238.921875 605.941406 239.492188 606.636719 240.132812 607.28125 C 240.773438 607.921875 241.472656 608.492188 242.226562 608.996094 C 242.980469 609.5 243.777344 609.925781 244.613281 610.273438 C 245.453125 610.621094 246.316406 610.882812 247.207031 611.058594 C 248.09375 611.238281 248.992188 611.324219 249.898438 611.324219 L 344.375 611.324219 C 346.6875 611.320312 348.996094 611.203125 351.296875 610.980469 C 353.597656 610.757812 355.882812 610.425781 358.152344 609.984375 C 360.425781 609.546875 362.667969 609.003906 364.886719 608.351562 C 367.105469 607.703125 369.292969 606.949219 371.4375 606.09375 C 373.585938 605.238281 375.691406 604.28125 377.75 603.226562 C 379.808594 602.175781 381.8125 601.027344 383.761719 599.785156 C 385.714844 598.542969 387.601562 597.210938 389.425781 595.789062 C 391.25 594.371094 393.007812 592.867188 394.691406 591.28125 C 396.375 589.695312 397.980469 588.035156 399.507812 586.300781 C 401.035156 584.5625 402.476562 582.757812 403.835938 580.886719 C 405.191406 579.015625 406.460938 577.082031 407.636719 575.089844 C 408.8125 573.097656 409.890625 571.054688 410.875 568.964844 C 411.859375 566.871094 412.742188 564.734375 413.527344 562.558594 C 414.308594 560.382812 414.988281 558.175781 415.5625 555.933594 C 416.140625 553.695312 416.609375 551.433594 416.972656 549.148438 C 417.332031 546.863281 417.589844 544.566406 417.734375 542.257812 L 501.976562 542.257812 C 521.160156 542.257812 539.929688 539.460938 558.28125 533.875 L 729.097656 481.921875 C 730.089844 481.617188 731.09375 481.375 732.113281 481.191406 C 733.132812 481.007812 734.160156 480.882812 735.195312 480.816406 C 736.226562 480.75 737.261719 480.746094 738.296875 480.804688 C 739.332031 480.859375 740.359375 480.976562 741.378906 481.152344 C 742.402344 481.328125 743.410156 481.5625 744.402344 481.855469 C 745.394531 482.148438 746.367188 482.5 747.320312 482.90625 C 748.273438 483.316406 749.199219 483.777344 750.097656 484.292969 C 750.996094 484.808594 751.863281 485.375 752.695312 485.988281 C 753.527344 486.605469 754.324219 487.269531 755.078125 487.980469 C 755.832031 488.6875 756.542969 489.441406 757.210938 490.230469 C 757.878906 491.023438 758.5 491.855469 759.070312 492.71875 C 759.640625 493.582031 760.160156 494.476562 760.625 495.402344 C 761.089844 496.328125 761.503906 497.277344 761.855469 498.253906 C 762.210938 499.226562 762.511719 500.214844 762.75 501.226562 C 762.988281 502.234375 763.167969 503.25 763.289062 504.28125 C 763.410156 505.308594 763.472656 506.34375 763.472656 507.378906 C 763.472656 508.675781 763.378906 509.964844 763.195312 511.25 C 763.007812 512.53125 762.726562 513.792969 762.355469 515.035156 C 761.984375 516.277344 761.523438 517.488281 760.976562 518.664062 C 760.429688 519.835938 759.796875 520.964844 759.085938 522.050781 C 758.371094 523.132812 757.585938 524.15625 756.722656 525.125 C 755.859375 526.089844 754.929688 526.992188 753.933594 527.824219 C 752.941406 528.65625 751.890625 529.410156 750.785156 530.089844 C 749.679688 530.765625 748.53125 531.359375 747.339844 531.871094 Z M 747.339844 531.871094 " fill-opacity="1" fill-rule="nonzero"/></g></svg>