<svg xmlns="http://www.w3.org/2000/svg" xmlns:xlink="http://www.w3.org/1999/xlink" width="1080" zoomAndPan="magnify" viewBox="0 0 810 809.999993" height="1080" preserveAspectRatio="xMidYMid meet" version="1.0"><defs><clipPath id="15f4bd3c71"><path d="M 36.003906 641 L 267 641 L 267 665 L 36.003906 665 Z M 36.003906 641 " clip-rule="nonzero"/></clipPath><clipPath id="2ca564df5d"><path d="M 687 458 L 774.003906 458 L 774.003906 546 L 687 546 Z M 687 458 " clip-rule="nonzero"/></clipPath><clipPath id="7b8820cb89"><path d="M 687 361 L 774.003906 361 L 774.003906 448 L 687 448 Z M 687 361 " clip-rule="nonzero"/></clipPath><clipPath id="19c58ff1f8"><path d="M 687 263 L 774.003906 263 L 774.003906 350 L 687 350 Z M 687 263 " clip-rule="nonzero"/></clipPath><clipPath id="e070b64fa2"><path d="M 36.003906 398 L 100 398 L 100 457 L 36.003906 457 Z M 36.003906 398 " clip-rule="nonzero"/></clipPath></defs><rect x="-81" width="972" fill="#ffffff" y="-80.999999" height="971.999992" fill-opacity="1"/><rect x="-81" width="972" fill="#ffffff" y="-80.999999" height="971.999992" fill-opacity="1"/><path fill="#000000" d="M 122.488281 353.03125 C 97.152344 353.03125 76.363281 373.8125 76.363281 399.140625 L 76.363281 652.730469 C 76.363281 659.097656 81.527344 664.257812 87.894531 664.257812 L 145.550781 664.257812 C 151.917969 664.257812 157.082031 659.097656 157.082031 652.730469 L 157.082031 606.625 C 184.304688 606.625 207.429688 588.773438 213.566406 560.789062 L 364.644531 560.511719 L 364.644531 652.722656 C 364.644531 659.089844 369.808594 664.25 376.175781 664.25 L 433.832031 664.25 C 440.199219 664.25 445.363281 659.089844 445.363281 652.722656 L 445.363281 572.847656 C 445.363281 560.617188 450.226562 548.898438 458.875 540.25 L 526.082031 473.070312 L 540.992188 487.972656 C 544.96875 491.96875 551.257812 492.507812 555.855469 489.242188 L 589.550781 465.152344 C 598.105469 459.046875 600.585938 447.101562 595.179688 438.089844 L 557.566406 375.410156 C 549.242188 361.539062 534.203125 353.03125 518.019531 353.03125 Z M 122.488281 376.085938 L 518.019531 376.085938 C 526.136719 376.085938 533.617188 380.339844 537.792969 387.300781 L 574.144531 447.863281 L 550.40625 464.789062 L 542.386719 456.773438 C 533.476562 447.867188 518.6875 447.867188 509.777344 456.773438 L 442.570312 523.953125 C 429.601562 536.921875 422.300781 554.519531 422.300781 572.855469 L 422.300781 641.203125 L 387.707031 641.203125 L 387.707031 548.992188 C 387.707031 542.625 382.542969 537.464844 376.175781 537.464844 L 203.207031 537.464844 C 196.839844 537.464844 191.675781 542.625 191.675781 548.992188 C 191.675781 568.226562 176.324219 583.570312 157.082031 583.570312 L 157.082031 537.464844 L 134.019531 537.464844 L 134.019531 641.203125 L 99.425781 641.203125 L 99.425781 399.140625 C 99.425781 386.273438 109.613281 376.085938 122.488281 376.085938 Z M 122.488281 376.085938 " fill-opacity="1" fill-rule="evenodd"/><g clip-path="url(#15f4bd3c71)"><path fill="#000000" d="M 47.714844 641.203125 C 46.957031 641.203125 46.207031 641.277344 45.464844 641.425781 C 44.722656 641.574219 44 641.789062 43.300781 642.082031 C 42.601562 642.371094 41.9375 642.726562 41.308594 643.144531 C 40.679688 643.5625 40.097656 644.039062 39.558594 644.578125 C 39.023438 645.113281 38.546875 645.695312 38.125 646.324219 C 37.707031 646.953125 37.351562 647.617188 37.0625 648.316406 C 36.769531 649.019531 36.550781 649.738281 36.402344 650.480469 C 36.257812 651.222656 36.183594 651.972656 36.183594 652.730469 C 36.183594 653.488281 36.257812 654.234375 36.402344 654.976562 C 36.550781 655.714844 36.769531 656.4375 37.0625 657.136719 C 37.351562 657.835938 37.707031 658.5 38.125 659.128906 C 38.546875 659.761719 39.023438 660.34375 39.558594 660.878906 C 40.097656 661.414062 40.679688 661.894531 41.308594 662.3125 C 41.9375 662.730469 42.601562 663.089844 43.300781 663.378906 C 44 663.667969 44.722656 663.882812 45.464844 664.03125 C 46.207031 664.179688 46.957031 664.253906 47.714844 664.257812 L 254.917969 664.257812 C 255.675781 664.253906 256.425781 664.179688 257.167969 664.03125 C 257.910156 663.882812 258.632812 663.667969 259.332031 663.378906 C 260.03125 663.089844 260.695312 662.730469 261.324219 662.3125 C 261.953125 661.894531 262.535156 661.414062 263.074219 660.878906 C 263.609375 660.34375 264.085938 659.761719 264.507812 659.128906 C 264.925781 658.5 265.28125 657.835938 265.574219 657.136719 C 265.863281 656.4375 266.082031 655.714844 266.230469 654.976562 C 266.375 654.234375 266.449219 653.488281 266.449219 652.730469 C 266.449219 651.972656 266.375 651.222656 266.230469 650.480469 C 266.082031 649.738281 265.863281 649.019531 265.574219 648.316406 C 265.28125 647.617188 264.925781 646.953125 264.507812 646.324219 C 264.085938 645.695312 263.609375 645.113281 263.074219 644.578125 C 262.535156 644.039062 261.953125 643.5625 261.324219 643.144531 C 260.695312 642.722656 260.03125 642.367188 259.332031 642.078125 C 258.632812 641.789062 257.910156 641.574219 257.167969 641.425781 C 256.425781 641.277344 255.675781 641.203125 254.917969 641.203125 Z M 47.714844 641.203125 " fill-opacity="1" fill-rule="evenodd"/></g><path fill="#000000" d="M 335.636719 641.203125 C 334.878906 641.203125 334.128906 641.277344 333.386719 641.425781 C 332.644531 641.574219 331.921875 641.789062 331.222656 642.082031 C 330.523438 642.371094 329.859375 642.726562 329.230469 643.144531 C 328.601562 643.5625 328.015625 644.039062 327.480469 644.578125 C 326.945312 645.113281 326.46875 645.695312 326.046875 646.324219 C 325.628906 646.953125 325.273438 647.617188 324.980469 648.316406 C 324.691406 649.019531 324.472656 649.738281 324.324219 650.480469 C 324.179688 651.222656 324.105469 651.972656 324.105469 652.730469 C 324.105469 653.488281 324.179688 654.234375 324.324219 654.976562 C 324.472656 655.714844 324.691406 656.4375 324.980469 657.136719 C 325.273438 657.835938 325.628906 658.5 326.046875 659.128906 C 326.46875 659.761719 326.945312 660.34375 327.480469 660.878906 C 328.015625 661.414062 328.601562 661.894531 329.230469 662.3125 C 329.859375 662.730469 330.523438 663.089844 331.222656 663.378906 C 331.921875 663.667969 332.644531 663.882812 333.386719 664.03125 C 334.128906 664.179688 334.878906 664.253906 335.636719 664.257812 L 762.292969 664.257812 C 763.050781 664.253906 763.800781 664.179688 764.542969 664.03125 C 765.285156 663.882812 766.007812 663.667969 766.707031 663.378906 C 767.40625 663.089844 768.070312 662.730469 768.699219 662.3125 C 769.328125 661.894531 769.910156 661.414062 770.449219 660.878906 C 770.984375 660.34375 771.460938 659.761719 771.882812 659.128906 C 772.300781 658.5 772.65625 657.835938 772.945312 657.136719 C 773.238281 656.4375 773.457031 655.714844 773.601562 654.976562 C 773.75 654.234375 773.824219 653.488281 773.824219 652.730469 C 773.824219 651.972656 773.75 651.222656 773.601562 650.480469 C 773.457031 649.738281 773.238281 649.019531 772.945312 648.316406 C 772.65625 647.617188 772.300781 646.953125 771.882812 646.324219 C 771.460938 645.695312 770.984375 645.113281 770.449219 644.578125 C 769.910156 644.039062 769.328125 643.5625 768.699219 643.144531 C 768.070312 642.722656 767.40625 642.367188 766.707031 642.078125 C 766.007812 641.789062 765.285156 641.574219 764.542969 641.425781 C 763.800781 641.277344 763.050781 641.203125 762.292969 641.203125 Z M 335.636719 641.203125 " fill-opacity="1" fill-rule="evenodd"/><path fill="#000000" d="M 560.675781 312.691406 L 560.675781 318.453125 C 560.675781 337.6875 545.324219 353.03125 526.082031 353.03125 L 520.316406 353.03125 L 520.316406 376.085938 L 526.082031 376.085938 C 557.789062 376.085938 583.738281 350.144531 583.738281 318.453125 L 583.738281 312.691406 Z M 560.675781 312.691406 " fill-opacity="1" fill-rule="evenodd"/><path fill="#000000" d="M 283.925781 652.75 C 283.925781 659.117188 289.089844 664.277344 295.457031 664.277344 C 301.824219 664.277344 306.988281 659.117188 306.988281 652.75 C 306.988281 646.382812 301.824219 641.222656 295.457031 641.222656 C 289.089844 641.222656 283.925781 646.382812 283.925781 652.75 Z M 283.925781 652.75 " fill-opacity="1" fill-rule="nonzero"/><g clip-path="url(#2ca564df5d)"><path fill="#000000" d="M 745.175781 458.980469 C 713.46875 458.980469 687.519531 484.921875 687.519531 516.613281 L 687.519531 545.429688 L 716.347656 545.429688 C 748.054688 545.429688 774.003906 519.492188 774.003906 487.796875 L 774.003906 458.980469 Z M 745.175781 482.035156 L 750.941406 482.035156 L 750.941406 487.796875 C 750.941406 507.03125 735.589844 522.375 716.347656 522.375 L 710.582031 522.375 L 710.582031 516.613281 C 710.582031 497.378906 725.933594 482.035156 745.175781 482.035156 Z M 745.175781 482.035156 " fill-opacity="1" fill-rule="evenodd"/></g><path fill="#000000" d="M 624.097656 458.980469 L 624.097656 487.796875 C 624.097656 519.492188 650.046875 545.429688 681.753906 545.429688 L 710.582031 545.429688 L 710.582031 516.613281 C 710.582031 484.921875 684.632812 458.980469 652.925781 458.980469 Z M 647.160156 482.035156 L 652.925781 482.035156 C 672.167969 482.035156 687.519531 497.378906 687.519531 516.613281 L 687.519531 522.375 L 681.753906 522.375 C 662.511719 522.375 647.160156 507.03125 647.160156 487.796875 Z M 647.160156 482.035156 " fill-opacity="1" fill-rule="evenodd"/><g clip-path="url(#7b8820cb89)"><path fill="#000000" d="M 745.175781 361.003906 C 713.46875 361.003906 687.519531 386.945312 687.519531 418.636719 L 687.519531 447.453125 L 716.347656 447.453125 C 748.054688 447.453125 774.003906 421.511719 774.003906 389.820312 L 774.003906 361.003906 Z M 745.175781 384.058594 L 750.941406 384.058594 L 750.941406 389.820312 C 750.941406 409.054688 735.589844 424.398438 716.347656 424.398438 L 710.582031 424.398438 L 710.582031 418.636719 C 710.582031 399.402344 725.933594 384.058594 745.175781 384.058594 Z M 745.175781 384.058594 " fill-opacity="1" fill-rule="evenodd"/></g><path fill="#000000" d="M 624.097656 361.003906 L 624.097656 389.820312 C 624.097656 421.515625 650.046875 447.453125 681.753906 447.453125 L 710.582031 447.453125 L 710.582031 418.636719 C 710.582031 386.941406 684.632812 361.003906 652.925781 361.003906 Z M 647.160156 384.058594 L 652.925781 384.058594 C 672.167969 384.058594 687.519531 399.402344 687.519531 418.636719 L 687.519531 424.398438 L 681.753906 424.398438 C 662.511719 424.398438 647.160156 409.054688 647.160156 389.820312 Z M 647.160156 384.058594 " fill-opacity="1" fill-rule="evenodd"/><g clip-path="url(#19c58ff1f8)"><path fill="#000000" d="M 745.175781 263.023438 C 713.46875 263.023438 687.519531 288.964844 687.519531 320.65625 L 687.519531 349.472656 L 716.347656 349.472656 C 748.054688 349.472656 774.003906 323.535156 774.003906 291.839844 L 774.003906 263.023438 Z M 745.175781 286.078125 L 750.941406 286.078125 L 750.941406 291.839844 C 750.941406 311.074219 735.589844 326.421875 716.347656 326.421875 L 710.582031 326.421875 L 710.582031 320.65625 C 710.582031 301.421875 725.933594 286.078125 745.175781 286.078125 Z M 745.175781 286.078125 " fill-opacity="1" fill-rule="evenodd"/></g><path fill="#000000" d="M 624.097656 263.023438 L 624.097656 291.839844 C 624.097656 323.535156 650.046875 349.472656 681.753906 349.472656 L 710.582031 349.472656 L 710.582031 320.65625 C 710.582031 288.964844 684.632812 263.023438 652.925781 263.023438 Z M 647.160156 286.078125 L 652.925781 286.078125 C 672.167969 286.078125 687.519531 301.421875 687.519531 320.65625 L 687.519531 326.421875 L 681.753906 326.421875 C 662.511719 326.421875 647.160156 311.074219 647.160156 291.839844 Z M 647.160156 286.078125 " fill-opacity="1" fill-rule="evenodd"/><path fill="#000000" d="M 699.050781 145.550781 L 690.898438 153.699219 L 678.644531 165.949219 C 656.226562 188.359375 656.226562 225.035156 678.644531 247.445312 C 682.726562 251.523438 690.898438 259.648438 690.898438 259.648438 L 699.050781 267.800781 L 719.457031 247.445312 C 741.875 225.035156 741.875 188.359375 719.457031 165.949219 C 715.378906 161.875 707.203125 153.699219 707.203125 153.699219 Z M 699.050781 178.148438 L 703.148438 182.246094 C 716.757812 195.847656 716.757812 217.546875 703.148438 231.148438 L 699.050781 235.195312 C 697.25 233.398438 696.351562 232.496094 694.996094 231.148438 C 681.390625 217.546875 681.390625 195.847656 694.996094 182.246094 Z M 699.050781 178.148438 " fill-opacity="1" fill-rule="evenodd"/><path fill="#000000" d="M 687.519531 562.722656 L 710.582031 562.722656 L 710.582031 654.933594 L 687.519531 654.933594 Z M 687.519531 562.722656 " fill-opacity="1" fill-rule="evenodd"/><g clip-path="url(#e070b64fa2)"><path fill="#000000" d="M 76.363281 399.140625 C 76.363281 418.378906 61.011719 433.71875 41.769531 433.71875 L 36.003906 433.71875 L 36.003906 456.773438 L 41.769531 456.773438 C 73.476562 456.773438 99.425781 430.832031 99.425781 399.140625 C 87.019531 398.910156 78.117188 398.585938 76.363281 399.140625 Z M 76.363281 399.140625 " fill-opacity="1" fill-rule="evenodd"/></g></svg>