<svg xmlns="http://www.w3.org/2000/svg" xmlns:xlink="http://www.w3.org/1999/xlink" width="1080" zoomAndPan="magnify" viewBox="0 0 810 809.999993" height="1080" preserveAspectRatio="xMidYMid meet" version="1.0"><defs><clipPath id="b7e71cd11e"><path d="M 49 590 L 482 590 L 482 754.554688 L 49 754.554688 Z M 49 590 " clip-rule="nonzero"/></clipPath><clipPath id="21ece5f317"><path d="M 551 55.554688 L 724 55.554688 L 724 343 L 551 343 Z M 551 55.554688 " clip-rule="nonzero"/></clipPath><clipPath id="427f201883"><path d="M 32.757812 74 L 206 74 L 206 362 L 32.757812 362 Z M 32.757812 74 " clip-rule="nonzero"/></clipPath><clipPath id="aa56991984"><path d="M 510 471 L 777.503906 471 L 777.503906 527 L 510 527 Z M 510 471 " clip-rule="nonzero"/></clipPath></defs><rect x="-81" width="972" fill="#ffffff" y="-80.999999" height="971.999992" fill-opacity="1"/><rect x="-81" width="972" fill="#ffffff" y="-80.999999" height="971.999992" fill-opacity="1"/><path fill="#000000" d="M 688.585938 643.917969 C 685.433594 643.917969 682.269531 642.832031 679.695312 640.617188 C 510.316406 494.617188 285.160156 418.984375 61.964844 433.089844 C 54.335938 433.679688 47.988281 427.859375 47.511719 420.351562 C 47.039062 412.839844 52.742188 406.367188 60.253906 405.894531 C 290.421875 391.34375 522.757812 469.367188 697.488281 619.980469 C 703.191406 624.894531 703.832031 633.5 698.914062 639.195312 C 696.214844 642.316406 692.40625 643.917969 688.585938 643.917969 Z M 688.585938 643.917969 " fill-opacity="1" fill-rule="nonzero"/><path fill="#000000" d="M 578.292969 699.214844 C 575.140625 699.214844 571.976562 698.128906 569.402344 695.910156 C 430.539062 576.214844 245.992188 514.222656 62.988281 525.78125 C 55.378906 526.304688 49.011719 520.550781 48.53125 513.039062 C 48.058594 505.527344 53.761719 499.058594 61.273438 498.585938 C 251.203125 486.542969 442.984375 550.964844 587.203125 675.277344 C 592.90625 680.1875 593.546875 688.792969 588.625 694.488281 C 585.921875 697.609375 582.113281 699.214844 578.292969 699.214844 Z M 578.292969 699.214844 " fill-opacity="1" fill-rule="nonzero"/><g clip-path="url(#b7e71cd11e)"><path fill="#000000" d="M 467.988281 754.5 C 464.832031 754.5 461.671875 753.414062 459.097656 751.199219 C 350.75 657.824219 206.816406 609.472656 63.996094 618.46875 C 56.40625 619.117188 50.019531 613.242188 49.539062 605.730469 C 49.066406 598.21875 54.769531 591.746094 62.285156 591.273438 C 212.023438 581.765625 363.191406 632.566406 476.890625 730.566406 C 482.59375 735.476562 483.234375 744.082031 478.3125 749.777344 C 475.625 752.898438 471.816406 754.5 467.988281 754.5 Z M 467.988281 754.5 " fill-opacity="1" fill-rule="nonzero"/></g><path fill="#000000" d="M 397.125 472.5625 C 391.765625 472.5625 386.679688 469.375 384.519531 464.113281 C 381.65625 457.144531 384.976562 449.191406 391.933594 446.328125 C 507.535156 398.832031 634.457031 378.875 759.117188 388.589844 C 766.617188 389.179688 772.222656 395.734375 771.640625 403.238281 C 771.058594 410.738281 764.769531 416.382812 756.992188 415.761719 C 636.632812 406.367188 513.976562 425.636719 402.300781 471.527344 C 400.605469 472.230469 398.851562 472.5625 397.125 472.5625 Z M 397.125 472.5625 " fill-opacity="1" fill-rule="nonzero"/><g clip-path="url(#21ece5f317)"><path fill="#000000" d="M 637.550781 342.691406 C 589.886719 342.691406 551.113281 303.925781 551.113281 256.269531 C 551.113281 223.621094 581.191406 55.667969 637.550781 55.667969 C 693.90625 55.667969 723.984375 223.621094 723.984375 256.269531 C 723.984375 303.925781 685.210938 342.691406 637.550781 342.691406 Z M 637.550781 82.921875 C 614.675781 82.921875 578.371094 207.332031 578.371094 256.269531 C 578.371094 288.894531 604.917969 315.4375 637.550781 315.4375 C 670.179688 315.4375 696.726562 288.894531 696.726562 256.269531 C 696.726562 207.332031 660.425781 82.921875 637.550781 82.921875 Z M 637.550781 82.921875 " fill-opacity="1" fill-rule="nonzero"/></g><path fill="#000000" d="M 637.550781 401.6875 C 630.023438 401.6875 623.921875 395.585938 623.921875 388.0625 L 623.921875 256.710938 C 623.921875 249.1875 630.023438 243.082031 637.550781 243.082031 C 645.074219 243.082031 651.179688 249.1875 651.179688 256.710938 L 651.179688 388.0625 C 651.179688 395.585938 645.074219 401.6875 637.550781 401.6875 Z M 637.550781 401.6875 " fill-opacity="1" fill-rule="nonzero"/><g clip-path="url(#427f201883)"><path fill="#000000" d="M 119.199219 361.203125 C 71.535156 361.203125 32.761719 322.4375 32.761719 274.785156 C 32.761719 242.132812 62.839844 74.183594 119.199219 74.183594 C 175.558594 74.183594 205.632812 242.132812 205.632812 274.785156 C 205.628906 322.4375 166.855469 361.203125 119.199219 361.203125 Z M 119.199219 101.433594 C 96.324219 101.433594 60.019531 225.84375 60.019531 274.785156 C 60.019531 307.410156 86.566406 333.949219 119.199219 333.949219 C 151.828125 333.949219 178.375 307.410156 178.375 274.785156 C 178.375 225.84375 142.074219 101.433594 119.199219 101.433594 Z M 119.199219 101.433594 " fill-opacity="1" fill-rule="nonzero"/></g><path fill="#000000" d="M 119.199219 420.203125 C 111.671875 420.203125 105.570312 414.097656 105.570312 406.574219 L 105.570312 275.222656 C 105.570312 267.699219 111.671875 261.597656 119.199219 261.597656 C 126.722656 261.597656 132.828125 267.699219 132.828125 275.222656 L 132.828125 406.574219 C 132.820312 414.097656 126.722656 420.203125 119.199219 420.203125 Z M 119.199219 420.203125 " fill-opacity="1" fill-rule="nonzero"/><path fill="#000000" d="M 224.09375 309 C 221.6875 309 219.261719 308.363281 217.058594 307.035156 C 210.617188 303.140625 208.550781 294.765625 212.441406 288.328125 L 279.074219 178.066406 C 281 174.878906 283.769531 172.292969 287.066406 170.570312 L 414.640625 104.445312 C 420.503906 101.410156 427.480469 101.414062 433.332031 104.464844 L 566.683594 173.871094 C 570.160156 175.695312 573.003906 178.441406 574.933594 181.828125 C 578.648438 188.371094 576.367188 196.691406 569.832031 200.40625 C 563.972656 203.722656 556.726562 202.257812 552.601562 197.257812 L 423.972656 130.304688 L 301.386719 193.839844 L 235.769531 302.417969 C 233.210938 306.652344 228.710938 309 224.09375 309 Z M 224.09375 309 " fill-opacity="1" fill-rule="nonzero"/><path fill="#000000" d="M 347.535156 446.652344 C 340.011719 446.652344 333.90625 440.550781 333.90625 433.027344 L 333.90625 288.570312 L 512.527344 288.570312 L 512.527344 411.863281 C 512.527344 419.386719 506.425781 425.488281 498.898438 425.488281 C 491.371094 425.488281 485.269531 419.386719 485.269531 411.863281 L 485.269531 315.816406 L 361.167969 315.816406 L 361.167969 433.019531 C 361.167969 440.550781 355.0625 446.652344 347.535156 446.652344 Z M 347.535156 446.652344 " fill-opacity="1" fill-rule="nonzero"/><path fill="#000000" d="M 265.570312 443 C 258.042969 443 251.941406 436.898438 251.941406 429.375 L 251.941406 226.761719 C 251.941406 219.238281 258.042969 213.136719 265.570312 213.136719 C 273.09375 213.136719 279.199219 219.238281 279.199219 226.761719 L 279.199219 429.375 C 279.191406 436.898438 273.09375 443 265.570312 443 Z M 265.570312 443 " fill-opacity="1" fill-rule="nonzero"/><path fill="#000000" d="M 577.582031 401.6875 C 570.058594 401.6875 563.953125 395.585938 563.953125 388.0625 L 563.953125 302.199219 C 563.953125 294.675781 570.058594 288.570312 577.582031 288.570312 C 585.109375 288.570312 591.210938 294.675781 591.210938 302.199219 L 591.210938 388.0625 C 591.210938 395.585938 585.109375 401.6875 577.582031 401.6875 Z M 577.582031 401.6875 " fill-opacity="1" fill-rule="nonzero"/><g clip-path="url(#aa56991984)"><path fill="#000000" d="M 523.933594 526.925781 C 518.050781 526.925781 512.625 523.085938 510.871094 517.15625 C 508.738281 509.941406 512.859375 502.359375 520.074219 500.226562 C 586.949219 480.445312 671.433594 470.292969 763.910156 471.121094 C 771.433594 471.175781 777.488281 477.324219 777.429688 484.847656 C 777.371094 492.339844 771.28125 498.367188 763.800781 498.367188 C 763.765625 498.367188 763.726562 498.367188 763.695312 498.367188 C 760.566406 498.339844 757.4375 498.328125 754.332031 498.328125 C 668.039062 498.328125 589.898438 507.976562 527.804688 526.355469 C 526.519531 526.738281 525.21875 526.925781 523.933594 526.925781 Z M 523.933594 526.925781 " fill-opacity="1" fill-rule="nonzero"/></g><path fill="#000000" d="M 467.992188 443 C 464.378906 443 460.777344 441.578125 458.101562 438.742188 L 337.636719 311.566406 C 332.460938 306.101562 332.699219 297.480469 338.164062 292.308594 C 343.632812 287.136719 352.257812 287.363281 357.421875 292.832031 L 477.886719 420.007812 C 483.066406 425.46875 482.824219 434.09375 477.363281 439.265625 C 474.730469 441.757812 471.363281 443 467.992188 443 Z M 467.992188 443 " fill-opacity="1" fill-rule="nonzero"/><path fill="#000000" d="M 356.917969 457.738281 C 353.433594 457.738281 349.941406 456.40625 347.285156 453.75 C 341.964844 448.429688 341.964844 439.800781 347.285156 434.488281 L 489.273438 292.566406 C 494.59375 287.246094 503.21875 287.246094 508.539062 292.566406 C 513.859375 297.886719 513.859375 306.515625 508.539062 311.828125 L 366.550781 453.75 C 363.886719 456.40625 360.402344 457.738281 356.917969 457.738281 Z M 356.917969 457.738281 " fill-opacity="1" fill-rule="nonzero"/><path fill="#000000" d="M 447.996094 264.15625 L 398.445312 264.15625 C 389.40625 264.15625 382.054688 256.808594 382.054688 247.769531 L 382.054688 194.261719 C 382.054688 185.222656 389.40625 177.875 398.445312 177.875 L 447.996094 177.875 C 457.035156 177.875 464.386719 185.222656 464.386719 194.261719 L 464.386719 247.769531 C 464.386719 256.808594 457.027344 264.15625 447.996094 264.15625 Z M 409.308594 236.910156 L 437.128906 236.910156 L 437.128906 205.125 L 409.308594 205.125 Z M 409.308594 236.910156 " fill-opacity="1" fill-rule="nonzero"/></svg>