<svg xmlns="http://www.w3.org/2000/svg" xmlns:xlink="http://www.w3.org/1999/xlink" width="1080" zoomAndPan="magnify" viewBox="0 0 810 809.999993" height="1080" preserveAspectRatio="xMidYMid meet" version="1.0"><defs><clipPath id="5510199324"><path d="M 22.0625 22.0625 L 787.8125 22.0625 L 787.8125 787.8125 L 22.0625 787.8125 Z M 22.0625 22.0625 " clip-rule="nonzero"/></clipPath></defs><rect x="-81" width="972" fill="#ffffff" y="-80.999999" height="971.999992" fill-opacity="1"/><rect x="-81" width="972" fill="#ffffff" y="-80.999999" height="971.999992" fill-opacity="1"/><g clip-path="url(#5510199324)"><path fill="#000000" d="M 744.144531 313.523438 C 741.859375 300.703125 741.640625 287.851562 743.496094 274.964844 C 745.207031 253.734375 746.984375 231.769531 736.125 213.039062 C 725.125 194.023438 705.003906 184.546875 685.625 175.367188 C 673.730469 170.644531 662.875 164.171875 653.0625 155.949219 C 644.839844 146.136719 638.363281 135.28125 633.644531 123.378906 C 624.488281 103.960938 615.015625 83.886719 595.972656 72.886719 C 577.242188 62.035156 555.269531 63.804688 534.042969 65.515625 C 521.15625 67.367188 508.308594 67.152344 495.492188 64.871094 C 483.769531 60.566406 473.015625 54.53125 463.230469 46.769531 C 446.296875 35.019531 427.03125 21.652344 404.527344 21.652344 C 382.019531 21.652344 362.757812 35.019531 345.78125 46.8125 C 335.996094 54.570312 325.242188 60.605469 313.523438 64.910156 C 300.703125 67.191406 287.851562 67.40625 274.964844 65.550781 C 253.726562 63.839844 231.769531 62.070312 213.039062 72.921875 C 194.023438 83.925781 184.546875 104.042969 175.367188 123.417969 C 170.644531 135.320312 164.171875 146.175781 155.949219 155.988281 C 146.136719 164.214844 135.277344 170.6875 123.378906 175.40625 C 103.960938 184.5625 83.886719 194.03125 72.886719 213.082031 C 62.042969 231.8125 63.820312 253.777344 65.515625 275.011719 C 67.367188 287.898438 67.152344 300.753906 64.871094 313.570312 C 60.5625 325.289062 54.53125 336.042969 46.777344 345.832031 C 35.019531 362.757812 21.652344 382.019531 21.652344 404.527344 C 21.652344 427.03125 35.019531 446.296875 46.820312 463.273438 C 54.574219 473.058594 60.605469 483.8125 64.910156 495.53125 C 67.195312 508.347656 67.40625 521.199219 65.550781 534.082031 C 63.835938 555.316406 62.070312 577.273438 72.921875 596.011719 C 83.925781 615.03125 104.042969 624.507812 123.417969 633.6875 C 135.316406 638.410156 146.175781 644.878906 155.988281 653.097656 C 164.210938 662.914062 170.683594 673.769531 175.40625 685.667969 C 184.5625 705.085938 194.03125 725.160156 213.082031 736.167969 C 231.8125 747 253.777344 745.234375 275.011719 743.539062 C 287.898438 741.6875 300.753906 741.902344 313.570312 744.183594 C 325.292969 748.484375 336.046875 754.515625 345.832031 762.277344 C 362.816406 774.070312 382.070312 787.441406 404.574219 787.441406 C 427.082031 787.441406 446.34375 774.070312 463.320312 762.277344 C 473.105469 754.511719 483.855469 748.484375 495.582031 744.183594 C 508.398438 741.894531 521.246094 741.679688 534.132812 743.539062 C 555.367188 745.25 577.332031 747.027344 596.0625 736.167969 C 615.078125 725.167969 624.554688 705.042969 633.734375 685.667969 C 638.457031 673.769531 644.925781 662.917969 653.144531 653.105469 C 662.960938 644.882812 673.816406 638.410156 685.71875 633.6875 C 705.136719 624.53125 725.207031 615.054688 736.214844 596.011719 C 747.050781 577.285156 745.28125 555.316406 743.585938 534.082031 C 741.726562 521.199219 741.945312 508.347656 744.234375 495.53125 C 748.53125 483.808594 754.5625 473.054688 762.324219 463.273438 C 774.117188 446.277344 787.492188 427.03125 787.492188 404.527344 C 787.492188 382.019531 774.117188 362.757812 762.324219 345.78125 C 754.53125 336.003906 748.472656 325.25 744.144531 313.523438 Z M 738.671875 446.917969 C 728.890625 459.375 721.480469 473.113281 716.4375 488.128906 C 713.175781 504.128906 712.671875 520.210938 714.921875 536.382812 C 716.347656 554.015625 717.691406 570.667969 711.335938 581.65625 C 704.78125 592.925781 689.558594 600.125 673.414062 607.734375 C 665.984375 610.726562 658.859375 614.324219 652.042969 618.535156 C 645.222656 622.746094 638.8125 627.503906 632.8125 632.808594 C 622.121094 644.90625 613.761719 658.441406 607.734375 673.414062 C 600.125 689.558594 592.925781 704.816406 581.65625 711.335938 C 570.667969 717.691406 554 716.339844 536.382812 714.929688 C 528.355469 713.808594 520.292969 713.378906 512.191406 713.632812 C 504.089844 713.886719 496.070312 714.824219 488.128906 716.445312 C 473.117188 721.496094 459.378906 728.910156 446.917969 738.6875 C 432.078125 749 418.058594 758.738281 404.527344 758.738281 C 390.996094 758.738281 376.976562 749 362.128906 738.6875 C 349.667969 728.910156 335.933594 721.496094 320.917969 716.453125 C 312.925781 714.445312 304.808594 713.503906 296.570312 713.636719 C 288.589844 713.636719 280.566406 714.28125 272.664062 714.921875 C 255.039062 716.339844 238.378906 717.691406 227.390625 711.335938 C 216.121094 704.78125 208.929688 689.558594 201.3125 673.414062 C 198.320312 665.984375 194.71875 658.859375 190.511719 652.039062 C 186.300781 645.222656 181.542969 638.8125 176.234375 632.808594 C 164.140625 622.121094 150.609375 613.761719 135.636719 607.734375 C 119.519531 600.125 104.238281 592.894531 97.710938 581.65625 C 91.355469 570.667969 92.707031 554.015625 94.125 536.382812 C 96.371094 520.210938 95.863281 504.125 92.601562 488.128906 C 87.5625 473.113281 80.15625 459.378906 70.382812 446.917969 C 60.054688 432.078125 50.316406 418.054688 50.316406 404.527344 C 50.316406 390.996094 60.054688 376.976562 70.363281 362.128906 C 80.144531 349.667969 87.558594 335.933594 92.601562 320.917969 C 95.867188 304.921875 96.378906 288.839844 94.132812 272.671875 C 92.714844 255.039062 91.363281 238.386719 97.726562 227.398438 C 104.28125 216.128906 119.496094 208.9375 135.636719 201.320312 C 143.070312 198.328125 150.199219 194.726562 157.015625 190.519531 C 163.835938 186.308594 170.246094 181.550781 176.25 176.242188 C 186.933594 164.148438 195.292969 150.617188 201.320312 135.644531 C 208.9375 119.496094 216.136719 104.246094 227.40625 97.71875 C 238.386719 91.363281 255.046875 92.699219 272.671875 94.132812 C 288.84375 96.371094 304.925781 95.863281 320.925781 92.609375 C 335.9375 87.570312 349.671875 80.160156 362.128906 70.382812 C 376.976562 60.054688 390.996094 50.316406 404.527344 50.316406 C 418.054688 50.316406 432.078125 60.054688 446.917969 70.355469 C 459.375 80.144531 473.113281 87.558594 488.128906 92.601562 C 496.070312 94.226562 504.089844 95.167969 512.191406 95.425781 C 520.292969 95.683594 528.355469 95.25 536.382812 94.132812 C 554.015625 92.714844 570.675781 91.371094 581.65625 97.726562 C 592.925781 104.28125 600.125 119.496094 607.734375 135.636719 C 610.726562 143.070312 614.324219 150.199219 618.535156 157.015625 C 622.746094 163.835938 627.503906 170.246094 632.808594 176.25 C 644.910156 186.933594 658.445312 195.289062 673.414062 201.320312 C 689.558594 208.9375 704.816406 216.136719 711.335938 227.40625 C 717.691406 238.394531 716.347656 255.039062 714.929688 272.671875 C 712.679688 288.84375 713.183594 304.925781 716.445312 320.925781 C 721.496094 335.9375 728.910156 349.675781 738.6875 362.136719 C 749 376.984375 758.738281 391.003906 758.738281 404.535156 C 758.738281 418.066406 749 432.078125 738.671875 446.917969 Z M 738.671875 446.917969 " fill-opacity="1" fill-rule="nonzero"/></g><path fill="#000000" d="M 404.527344 139.59375 C 400.191406 139.59375 395.859375 139.699219 391.527344 139.914062 C 387.195312 140.125 382.875 140.445312 378.558594 140.871094 C 374.242188 141.292969 369.941406 141.824219 365.652344 142.460938 C 361.363281 143.097656 357.09375 143.839844 352.839844 144.683594 C 348.585938 145.53125 344.359375 146.480469 340.152344 147.535156 C 335.945312 148.585938 331.769531 149.742188 327.617188 151 C 323.46875 152.261719 319.355469 153.621094 315.269531 155.082031 C 311.1875 156.542969 307.144531 158.101562 303.136719 159.761719 C 299.132812 161.417969 295.167969 163.175781 291.25 165.03125 C 287.332031 166.882812 283.457031 168.832031 279.636719 170.878906 C 275.8125 172.921875 272.039062 175.058594 268.320312 177.285156 C 264.601562 179.515625 260.9375 181.835938 257.332031 184.242188 C 253.726562 186.652344 250.183594 189.148438 246.703125 191.730469 C 243.21875 194.3125 239.800781 196.980469 236.449219 199.730469 C 233.097656 202.484375 229.816406 205.3125 226.601562 208.226562 C 223.390625 211.136719 220.25 214.125 217.183594 217.191406 C 214.121094 220.257812 211.128906 223.398438 208.21875 226.609375 C 205.308594 229.824219 202.476562 233.105469 199.726562 236.457031 C 196.972656 239.808594 194.308594 243.226562 191.722656 246.707031 C 189.140625 250.191406 186.644531 253.734375 184.238281 257.339844 C 181.828125 260.945312 179.507812 264.609375 177.28125 268.328125 C 175.050781 272.046875 172.914062 275.816406 170.871094 279.640625 C 168.824219 283.464844 166.875 287.335938 165.023438 291.257812 C 163.167969 295.175781 161.414062 299.140625 159.753906 303.144531 C 158.09375 307.152344 156.535156 311.195312 155.074219 315.277344 C 153.613281 319.359375 152.253906 323.476562 150.992188 327.625 C 149.734375 331.777344 148.578125 335.953125 147.527344 340.160156 C 146.472656 344.367188 145.523438 348.59375 144.675781 352.847656 C 143.832031 357.101562 143.089844 361.371094 142.453125 365.660156 C 141.816406 369.949219 141.285156 374.25 140.863281 378.566406 C 140.4375 382.882812 140.117188 387.203125 139.90625 391.535156 C 139.691406 395.867188 139.585938 400.199219 139.585938 404.535156 C 139.585938 408.871094 139.691406 413.203125 139.90625 417.535156 C 140.117188 421.867188 140.4375 426.1875 140.863281 430.503906 C 141.285156 434.820312 141.816406 439.121094 142.453125 443.410156 C 143.089844 447.699219 143.832031 451.972656 144.675781 456.222656 C 145.523438 460.476562 146.472656 464.707031 147.527344 468.910156 C 148.578125 473.117188 149.734375 477.296875 150.996094 481.445312 C 152.253906 485.59375 153.613281 489.710938 155.074219 493.792969 C 156.535156 497.875 158.09375 501.917969 159.753906 505.925781 C 161.414062 509.929688 163.171875 513.894531 165.023438 517.8125 C 166.878906 521.734375 168.828125 525.605469 170.871094 529.429688 C 172.914062 533.253906 175.050781 537.023438 177.28125 540.742188 C 179.511719 544.464844 181.828125 548.125 184.238281 551.730469 C 186.648438 555.335938 189.144531 558.878906 191.726562 562.363281 C 194.308594 565.84375 196.976562 569.261719 199.726562 572.613281 C 202.476562 575.964844 205.308594 579.25 208.222656 582.460938 C 211.132812 585.675781 214.121094 588.8125 217.1875 591.878906 C 220.253906 594.945312 223.394531 597.933594 226.605469 600.847656 C 229.820312 603.757812 233.101562 606.589844 236.453125 609.339844 C 239.804688 612.089844 243.222656 614.757812 246.707031 617.339844 C 250.1875 619.921875 253.730469 622.417969 257.335938 624.828125 C 260.941406 627.238281 264.605469 629.554688 268.324219 631.785156 C 272.042969 634.015625 275.816406 636.152344 279.636719 638.195312 C 283.460938 640.238281 287.335938 642.1875 291.253906 644.042969 C 295.175781 645.894531 299.136719 647.652344 303.144531 649.3125 C 307.148438 650.96875 311.191406 652.53125 315.277344 653.992188 C 319.359375 655.453125 323.472656 656.8125 327.625 658.070312 C 331.773438 659.328125 335.949219 660.484375 340.15625 661.539062 C 344.363281 662.589844 348.59375 663.539062 352.84375 664.386719 C 357.097656 665.234375 361.367188 665.972656 365.65625 666.609375 C 369.945312 667.246094 374.25 667.777344 378.5625 668.203125 C 382.878906 668.625 387.203125 668.945312 391.53125 669.15625 C 395.863281 669.371094 400.195312 669.476562 404.53125 669.476562 C 408.867188 669.476562 413.203125 669.371094 417.53125 669.15625 C 421.863281 668.945312 426.1875 668.625 430.5 668.199219 C 434.816406 667.773438 439.117188 667.246094 443.40625 666.609375 C 447.695312 665.972656 451.96875 665.230469 456.21875 664.382812 C 460.472656 663.539062 464.703125 662.589844 468.910156 661.535156 C 473.113281 660.480469 477.292969 659.324219 481.441406 658.066406 C 485.589844 656.808594 489.707031 655.449219 493.789062 653.988281 C 497.871094 652.527344 501.914062 650.964844 505.921875 649.308594 C 509.925781 647.648438 513.890625 645.890625 517.808594 644.035156 C 521.730469 642.183594 525.601562 640.234375 529.425781 638.191406 C 533.25 636.144531 537.019531 634.007812 540.738281 631.78125 C 544.457031 629.550781 548.121094 627.230469 551.726562 624.820312 C 555.332031 622.414062 558.875 619.917969 562.359375 617.335938 C 565.839844 614.75 569.257812 612.085938 572.609375 609.332031 C 575.960938 606.582031 579.242188 603.75 582.457031 600.839844 C 585.667969 597.925781 588.808594 594.9375 591.875 591.871094 C 594.941406 588.804688 597.929688 585.667969 600.839844 582.453125 C 603.753906 579.242188 606.582031 575.957031 609.332031 572.605469 C 612.085938 569.253906 614.75 565.835938 617.335938 562.355469 C 619.917969 558.871094 622.414062 555.328125 624.820312 551.722656 C 627.230469 548.117188 629.550781 544.457031 631.777344 540.734375 C 634.007812 537.015625 636.144531 533.246094 638.1875 529.421875 C 640.230469 525.597656 642.179688 521.726562 644.035156 517.804688 C 645.886719 513.886719 647.644531 509.921875 649.304688 505.917969 C 650.964844 501.910156 652.523438 497.867188 653.984375 493.785156 C 655.445312 489.703125 656.804688 485.585938 658.0625 481.4375 C 659.320312 477.285156 660.476562 473.109375 661.53125 468.902344 C 662.582031 464.695312 663.535156 460.46875 664.378906 456.214844 C 665.226562 451.960938 665.964844 447.691406 666.601562 443.402344 C 667.238281 439.113281 667.769531 434.8125 668.195312 430.496094 C 668.617188 426.179688 668.9375 421.859375 669.148438 417.527344 C 669.363281 413.195312 669.46875 408.863281 669.46875 404.527344 C 669.464844 400.191406 669.351562 395.859375 669.132812 391.53125 C 668.917969 387.203125 668.59375 382.882812 668.164062 378.566406 C 667.734375 374.253906 667.199219 369.953125 666.558594 365.667969 C 665.921875 361.382812 665.175781 357.113281 664.324219 352.863281 C 663.476562 348.609375 662.523438 344.382812 661.46875 340.179688 C 660.410156 335.976562 659.25 331.800781 657.988281 327.652344 C 656.730469 323.507812 655.367188 319.394531 653.902344 315.3125 C 652.441406 311.234375 650.878906 307.191406 649.21875 303.1875 C 647.554688 299.183594 645.796875 295.222656 643.941406 291.304688 C 642.085938 287.390625 640.136719 283.519531 638.09375 279.699219 C 636.046875 275.875 633.910156 272.105469 631.679688 268.390625 C 629.449219 264.671875 627.132812 261.011719 624.722656 257.410156 C 622.3125 253.804688 619.816406 250.261719 617.234375 246.78125 C 614.652344 243.300781 611.984375 239.886719 609.234375 236.535156 C 606.484375 233.1875 603.652344 229.90625 600.742188 226.695312 C 597.832031 223.480469 594.84375 220.34375 591.777344 217.277344 C 588.710938 214.214844 585.574219 211.226562 582.363281 208.316406 C 579.152344 205.402344 575.871094 202.574219 572.519531 199.824219 C 569.167969 197.074219 565.753906 194.40625 562.273438 191.824219 C 558.792969 189.242188 555.25 186.746094 551.644531 184.335938 C 548.042969 181.925781 544.382812 179.605469 540.664062 177.378906 C 536.949219 175.148438 533.179688 173.011719 529.355469 170.964844 C 525.535156 168.921875 521.664062 166.972656 517.75 165.117188 C 513.832031 163.261719 509.871094 161.503906 505.867188 159.839844 C 501.863281 158.179688 497.820312 156.617188 493.742188 155.15625 C 489.660156 153.691406 485.546875 152.332031 481.398438 151.070312 C 477.253906 149.808594 473.078125 148.648438 468.875 147.59375 C 464.671875 146.535156 460.441406 145.582031 456.191406 144.734375 C 451.941406 143.886719 447.671875 143.140625 443.386719 142.5 C 439.097656 141.859375 434.800781 141.324219 430.484375 140.898438 C 426.171875 140.46875 421.851562 140.144531 417.523438 139.925781 C 413.191406 139.710938 408.863281 139.597656 404.527344 139.59375 Z M 404.527344 640.8125 C 400.660156 640.8125 396.796875 640.71875 392.933594 640.527344 C 389.070312 640.335938 385.214844 640.054688 381.367188 639.675781 C 377.519531 639.296875 373.683594 638.820312 369.859375 638.253906 C 366.03125 637.6875 362.222656 637.027344 358.429688 636.273438 C 354.640625 635.515625 350.867188 634.671875 347.117188 633.730469 C 343.367188 632.789062 339.640625 631.761719 335.9375 630.636719 C 332.238281 629.515625 328.570312 628.300781 324.925781 627 C 321.285156 625.695312 317.679688 624.304688 314.109375 622.824219 C 310.535156 621.347656 307 619.78125 303.503906 618.125 C 300.011719 616.472656 296.558594 614.734375 293.148438 612.910156 C 289.738281 611.089844 286.371094 609.183594 283.054688 607.195312 C 279.738281 605.207031 276.472656 603.140625 273.257812 600.992188 C 270.042969 598.84375 266.882812 596.617188 263.777344 594.3125 C 260.671875 592.011719 257.625 589.632812 254.632812 587.179688 C 251.644531 584.726562 248.71875 582.199219 245.851562 579.605469 C 242.988281 577.007812 240.1875 574.339844 237.453125 571.605469 C 234.71875 568.871094 232.054688 566.074219 229.457031 563.207031 C 226.859375 560.34375 224.335938 557.414062 221.882812 554.425781 C 219.429688 551.4375 217.050781 548.390625 214.746094 545.285156 C 212.445312 542.179688 210.21875 539.019531 208.070312 535.804688 C 205.921875 532.585938 203.851562 529.320312 201.867188 526.003906 C 199.878906 522.6875 197.972656 519.324219 196.148438 515.914062 C 194.328125 512.503906 192.589844 509.050781 190.933594 505.554688 C 189.28125 502.058594 187.714844 498.527344 186.234375 494.953125 C 184.753906 491.382812 183.363281 487.773438 182.0625 484.132812 C 180.757812 480.492188 179.546875 476.824219 178.425781 473.121094 C 177.300781 469.421875 176.269531 465.695312 175.332031 461.945312 C 174.390625 458.195312 173.542969 454.421875 172.789062 450.628906 C 172.035156 446.835938 171.375 443.027344 170.808594 439.203125 C 170.238281 435.378906 169.765625 431.542969 169.386719 427.695312 C 169.007812 423.847656 168.722656 419.992188 168.535156 416.128906 C 168.34375 412.265625 168.25 408.402344 168.25 404.535156 C 168.25 400.667969 168.34375 396.804688 168.535156 392.941406 C 168.722656 389.078125 169.007812 385.222656 169.386719 381.375 C 169.765625 377.527344 170.238281 373.691406 170.808594 369.867188 C 171.375 366.042969 172.035156 362.234375 172.789062 358.441406 C 173.542969 354.648438 174.390625 350.875 175.332031 347.125 C 176.269531 343.375 177.300781 339.648438 178.421875 335.949219 C 179.546875 332.25 180.757812 328.578125 182.0625 324.9375 C 183.363281 321.296875 184.753906 317.691406 186.234375 314.117188 C 187.714844 310.542969 189.28125 307.011719 190.933594 303.515625 C 192.585938 300.019531 194.324219 296.566406 196.148438 293.15625 C 197.96875 289.746094 199.875 286.382812 201.863281 283.066406 C 203.851562 279.75 205.917969 276.484375 208.066406 273.269531 C 210.214844 270.054688 212.441406 266.894531 214.746094 263.789062 C 217.046875 260.679688 219.425781 257.632812 221.878906 254.644531 C 224.332031 251.65625 226.859375 248.730469 229.453125 245.863281 C 232.050781 243 234.71875 240.199219 237.449219 237.464844 C 240.183594 234.730469 242.984375 232.0625 245.851562 229.46875 C 248.714844 226.871094 251.640625 224.347656 254.632812 221.894531 C 257.621094 219.441406 260.667969 217.0625 263.773438 214.757812 C 266.878906 212.453125 270.039062 210.226562 273.253906 208.082031 C 276.46875 205.933594 279.734375 203.863281 283.050781 201.875 C 286.371094 199.886719 289.734375 197.980469 293.144531 196.160156 C 296.554688 194.335938 300.007812 192.597656 303.5 190.945312 C 306.996094 189.292969 310.53125 187.726562 314.101562 186.246094 C 317.675781 184.765625 321.28125 183.375 324.921875 182.070312 C 328.5625 180.769531 332.234375 179.554688 335.933594 178.433594 C 339.636719 177.3125 343.359375 176.28125 347.113281 175.339844 C 350.863281 174.402344 354.632812 173.554688 358.425781 172.800781 C 362.21875 172.042969 366.027344 171.382812 369.851562 170.816406 C 373.679688 170.25 377.515625 169.777344 381.363281 169.398438 C 385.210938 169.015625 389.066406 168.734375 392.929688 168.542969 C 396.789062 168.351562 400.65625 168.257812 404.523438 168.257812 C 408.386719 168.257812 412.253906 168.351562 416.113281 168.542969 C 419.976562 168.730469 423.832031 169.015625 427.679688 169.394531 C 431.527344 169.773438 435.367188 170.246094 439.191406 170.816406 C 443.015625 171.382812 446.824219 172.042969 450.617188 172.796875 C 454.410156 173.550781 458.179688 174.398438 461.933594 175.335938 C 465.683594 176.277344 469.410156 177.308594 473.109375 178.429688 C 476.808594 179.554688 480.480469 180.765625 484.121094 182.066406 C 487.761719 183.371094 491.367188 184.761719 494.941406 186.242188 C 498.511719 187.722656 502.046875 189.289062 505.542969 190.941406 C 509.039062 192.59375 512.492188 194.332031 515.902344 196.15625 C 519.3125 197.976562 522.675781 199.882812 525.992188 201.871094 C 529.308594 203.859375 532.574219 205.925781 535.789062 208.074219 C 539.003906 210.222656 542.164062 212.449219 545.273438 214.75 C 548.378906 217.054688 551.425781 219.433594 554.414062 221.886719 C 557.402344 224.339844 560.332031 226.863281 563.195312 229.460938 C 566.0625 232.058594 568.859375 234.722656 571.59375 237.457031 C 574.328125 240.191406 576.996094 242.992188 579.59375 245.855469 C 582.1875 248.722656 584.714844 251.648438 587.167969 254.636719 C 589.621094 257.625 592 260.671875 594.300781 263.78125 C 596.605469 266.886719 598.832031 270.046875 600.980469 273.261719 C 603.128906 276.476562 605.195312 279.742188 607.183594 283.058594 C 609.171875 286.375 611.078125 289.738281 612.902344 293.148438 C 614.722656 296.558594 616.460938 300.011719 618.117188 303.507812 C 619.769531 307.003906 621.335938 310.535156 622.816406 314.109375 C 624.296875 317.679688 625.6875 321.289062 626.988281 324.929688 C 628.292969 328.570312 629.503906 332.238281 630.628906 335.941406 C 631.75 339.640625 632.78125 343.367188 633.722656 347.117188 C 634.660156 350.867188 635.507812 354.640625 636.261719 358.433594 C 637.015625 362.226562 637.679688 366.035156 638.246094 369.859375 C 638.8125 373.683594 639.285156 377.519531 639.664062 381.367188 C 640.042969 385.214844 640.328125 389.070312 640.519531 392.933594 C 640.707031 396.796875 640.804688 400.660156 640.804688 404.527344 C 640.800781 408.394531 640.699219 412.253906 640.507812 416.117188 C 640.3125 419.976562 640.023438 423.832031 639.640625 427.675781 C 639.257812 431.523438 638.78125 435.359375 638.210938 439.183594 C 637.640625 443.007812 636.976562 446.8125 636.21875 450.605469 C 635.460938 454.394531 634.613281 458.164062 633.667969 461.914062 C 632.726562 465.664062 631.695312 469.386719 630.570312 473.085938 C 629.445312 476.78125 628.230469 480.453125 626.925781 484.089844 C 625.621094 487.730469 624.226562 491.332031 622.746094 494.90625 C 621.265625 498.476562 619.695312 502.007812 618.042969 505.5 C 616.386719 508.996094 614.648438 512.445312 612.824219 515.855469 C 611 519.261719 609.09375 522.625 607.105469 525.9375 C 605.117188 529.253906 603.050781 532.519531 600.902344 535.730469 C 598.753906 538.945312 596.527344 542.105469 594.222656 545.207031 C 591.917969 548.3125 589.542969 551.359375 587.089844 554.347656 C 584.636719 557.335938 582.113281 560.261719 579.515625 563.125 C 576.917969 565.988281 574.253906 568.789062 571.519531 571.519531 C 568.789062 574.253906 565.988281 576.917969 563.125 579.515625 C 560.261719 582.113281 557.335938 584.636719 554.347656 587.089844 C 551.359375 589.542969 548.3125 591.917969 545.207031 594.222656 C 542.105469 596.527344 538.945312 598.753906 535.730469 600.902344 C 532.519531 603.050781 529.253906 605.117188 525.9375 607.105469 C 522.625 609.09375 519.261719 611 515.855469 612.824219 C 512.445312 614.648438 508.996094 616.386719 505.5 618.042969 C 502.007812 619.695312 498.476562 621.265625 494.90625 622.746094 C 491.332031 624.226562 487.730469 625.621094 484.089844 626.925781 C 480.453125 628.230469 476.78125 629.445312 473.085938 630.570312 C 469.386719 631.695312 465.664062 632.726562 461.914062 633.671875 C 458.164062 634.613281 454.394531 635.460938 450.605469 636.21875 C 446.8125 636.976562 443.007812 637.640625 439.183594 638.210938 C 435.359375 638.78125 431.523438 639.257812 427.675781 639.640625 C 423.832031 640.023438 419.976562 640.3125 416.117188 640.507812 C 412.253906 640.699219 408.394531 640.800781 404.527344 640.804688 Z M 404.527344 640.8125 " fill-opacity="1" fill-rule="nonzero"/><path fill="#000000" d="M 524.65625 282.238281 C 521.5625 282.226562 518.496094 282.519531 515.457031 283.117188 C 512.421875 283.714844 509.472656 284.605469 506.613281 285.789062 C 503.753906 286.972656 501.039062 288.429688 498.46875 290.152344 C 495.898438 291.875 493.519531 293.832031 491.339844 296.027344 L 374.222656 413.144531 L 317.714844 356.582031 C 316.625 355.480469 315.488281 354.433594 314.296875 353.441406 C 313.105469 352.449219 311.867188 351.519531 310.585938 350.652344 C 309.300781 349.78125 307.980469 348.976562 306.617188 348.238281 C 305.253906 347.5 303.859375 346.832031 302.429688 346.230469 C 301.003906 345.628906 299.546875 345.101562 298.066406 344.644531 C 296.585938 344.1875 295.085938 343.804688 293.570312 343.496094 C 292.050781 343.1875 290.519531 342.953125 288.976562 342.792969 C 287.4375 342.636719 285.890625 342.554688 284.339844 342.546875 C 282.792969 342.542969 281.246094 342.613281 279.703125 342.761719 C 278.160156 342.910156 276.628906 343.132812 275.109375 343.429688 C 273.585938 343.726562 272.085938 344.101562 270.601562 344.546875 C 269.117188 344.992188 267.660156 345.511719 266.226562 346.101562 C 264.792969 346.695312 263.394531 347.351562 262.027344 348.082031 C 260.660156 348.8125 259.332031 349.605469 258.042969 350.464844 C 256.753906 351.324219 255.507812 352.246094 254.3125 353.230469 C 253.113281 354.210938 251.964844 355.25 250.871094 356.347656 C 249.773438 357.441406 248.734375 358.589844 247.753906 359.789062 C 246.769531 360.988281 245.851562 362.230469 244.992188 363.519531 C 244.132812 364.808594 243.335938 366.140625 242.609375 367.507812 C 241.878906 368.875 241.222656 370.273438 240.632812 371.707031 C 240.042969 373.140625 239.523438 374.597656 239.078125 376.082031 C 238.632812 377.566406 238.257812 379.070312 237.960938 380.589844 C 237.664062 382.109375 237.441406 383.644531 237.292969 385.183594 C 237.148438 386.726562 237.078125 388.273438 237.082031 389.824219 C 237.089844 391.375 237.171875 392.917969 237.332031 394.460938 C 237.488281 396.003906 237.722656 397.53125 238.035156 399.050781 C 238.34375 400.570312 238.726562 402.066406 239.183594 403.546875 C 239.640625 405.027344 240.171875 406.484375 240.773438 407.910156 C 241.375 409.339844 242.042969 410.734375 242.785156 412.097656 C 243.523438 413.460938 244.328125 414.78125 245.195312 416.0625 C 246.066406 417.347656 246.996094 418.582031 247.988281 419.773438 C 248.980469 420.964844 250.027344 422.105469 251.132812 423.191406 L 340.980469 513.035156 C 342.074219 514.125 343.214844 515.160156 344.40625 516.136719 C 345.597656 517.117188 346.835938 518.035156 348.117188 518.890625 C 349.398438 519.746094 350.71875 520.539062 352.078125 521.265625 C 353.4375 521.992188 354.832031 522.652344 356.257812 523.242188 C 357.679688 523.832031 359.128906 524.351562 360.605469 524.800781 C 362.082031 525.246094 363.574219 525.621094 365.089844 525.921875 C 366.601562 526.222656 368.125 526.449219 369.660156 526.601562 C 371.195312 526.75 372.730469 526.828125 374.273438 526.828125 C 375.816406 526.828125 377.355469 526.75 378.890625 526.601562 C 380.421875 526.449219 381.945312 526.222656 383.460938 525.921875 C 384.972656 525.621094 386.464844 525.246094 387.941406 524.800781 C 389.417969 524.351562 390.867188 523.832031 392.292969 523.242188 C 393.714844 522.652344 395.109375 521.992188 396.46875 521.265625 C 397.828125 520.539062 399.148438 519.746094 400.429688 518.890625 C 401.714844 518.035156 402.949219 517.117188 404.140625 516.136719 C 405.335938 515.160156 406.476562 514.125 407.566406 513.035156 L 557.957031 362.628906 C 559.59375 360.992188 561.101562 359.242188 562.480469 357.382812 C 563.859375 355.519531 565.097656 353.570312 566.1875 351.527344 C 567.28125 349.484375 568.214844 347.375 568.996094 345.195312 C 569.777344 343.011719 570.394531 340.785156 570.84375 338.515625 C 571.296875 336.246094 571.578125 333.953125 571.691406 331.640625 C 571.804688 329.324219 571.75 327.015625 571.523438 324.710938 C 571.296875 322.40625 570.902344 320.132812 570.339844 317.886719 C 569.777344 315.640625 569.050781 313.445312 568.164062 311.304688 C 567.277344 309.167969 566.238281 307.105469 565.050781 305.117188 C 563.859375 303.132812 562.527344 301.242188 561.058594 299.453125 C 559.589844 297.664062 557.996094 295.988281 556.28125 294.433594 C 554.566406 292.878906 552.746094 291.457031 550.820312 290.171875 C 548.894531 288.886719 546.882812 287.746094 544.789062 286.757812 C 542.695312 285.765625 540.542969 284.9375 538.324219 284.261719 C 536.109375 283.589844 533.855469 283.085938 531.566406 282.746094 C 529.273438 282.40625 526.972656 282.234375 524.65625 282.238281 Z M 537.6875 342.359375 L 387.269531 492.773438 C 386.835938 493.1875 386.382812 493.578125 385.914062 493.949219 C 385.441406 494.320312 384.953125 494.664062 384.449219 494.988281 C 383.945312 495.3125 383.425781 495.613281 382.894531 495.886719 C 382.359375 496.160156 381.816406 496.410156 381.261719 496.632812 C 380.703125 496.855469 380.136719 497.050781 379.5625 497.21875 C 378.988281 497.386719 378.40625 497.53125 377.816406 497.644531 C 377.226562 497.757812 376.636719 497.839844 376.039062 497.898438 C 375.441406 497.957031 374.84375 497.984375 374.246094 497.984375 C 373.644531 497.984375 373.046875 497.957031 372.449219 497.898438 C 371.855469 497.839844 371.261719 497.757812 370.671875 497.644531 C 370.085938 497.53125 369.503906 497.386719 368.929688 497.21875 C 368.351562 497.050781 367.785156 496.855469 367.230469 496.632812 C 366.671875 496.410156 366.128906 496.160156 365.597656 495.886719 C 365.0625 495.613281 364.542969 495.3125 364.039062 494.988281 C 363.535156 494.664062 363.046875 494.320312 362.578125 493.949219 C 362.105469 493.578125 361.652344 493.1875 361.21875 492.773438 L 271.367188 402.890625 C 270.941406 402.460938 270.535156 402.015625 270.152344 401.550781 C 269.769531 401.082031 269.410156 400.597656 269.074219 400.097656 C 268.742188 399.59375 268.429688 399.078125 268.144531 398.546875 C 267.859375 398.011719 267.601562 397.46875 267.371094 396.910156 C 267.140625 396.351562 266.9375 395.785156 266.761719 395.207031 C 266.585938 394.628906 266.441406 394.046875 266.324219 393.453125 C 266.207031 392.859375 266.117188 392.265625 266.058594 391.664062 C 266 391.0625 265.96875 390.460938 265.96875 389.859375 C 265.96875 389.253906 265.996094 388.652344 266.058594 388.050781 C 266.117188 387.449219 266.203125 386.855469 266.320312 386.261719 C 266.441406 385.671875 266.585938 385.085938 266.761719 384.507812 C 266.9375 383.929688 267.140625 383.363281 267.371094 382.804688 C 267.601562 382.246094 267.859375 381.703125 268.144531 381.167969 C 268.425781 380.636719 268.738281 380.121094 269.074219 379.617188 C 269.40625 379.117188 269.765625 378.632812 270.148438 378.164062 C 270.53125 377.699219 270.9375 377.25 271.363281 376.824219 C 271.792969 376.398438 272.238281 375.992188 272.703125 375.609375 C 273.171875 375.226562 273.65625 374.867188 274.15625 374.53125 C 274.660156 374.195312 275.175781 373.886719 275.707031 373.601562 C 276.242188 373.316406 276.785156 373.058594 277.34375 372.828125 C 277.902344 372.597656 278.46875 372.394531 279.046875 372.21875 C 279.625 372.042969 280.207031 371.898438 280.800781 371.78125 C 281.390625 371.660156 281.988281 371.574219 282.589844 371.515625 C 283.191406 371.453125 283.792969 371.425781 284.394531 371.425781 C 285 371.425781 285.601562 371.453125 286.203125 371.511719 C 286.800781 371.574219 287.398438 371.660156 287.992188 371.777344 C 288.582031 371.894531 289.167969 372.042969 289.746094 372.21875 C 290.324219 372.394531 290.890625 372.597656 291.449219 372.828125 C 292.007812 373.058594 292.550781 373.316406 293.082031 373.601562 C 293.617188 373.882812 294.132812 374.195312 294.636719 374.527344 C 295.136719 374.863281 295.621094 375.222656 296.089844 375.605469 C 296.554688 375.988281 297 376.394531 297.429688 376.820312 L 364.117188 443.503906 C 364.78125 444.167969 365.507812 444.761719 366.289062 445.285156 C 367.070312 445.808594 367.894531 446.25 368.765625 446.613281 C 369.632812 446.972656 370.53125 447.242188 371.453125 447.429688 C 372.375 447.613281 373.308594 447.703125 374.25 447.703125 C 375.191406 447.703125 376.121094 447.613281 377.042969 447.429688 C 377.96875 447.242188 378.863281 446.972656 379.734375 446.613281 C 380.601562 446.25 381.425781 445.808594 382.210938 445.285156 C 382.992188 444.761719 383.714844 444.167969 384.378906 443.503906 L 511.632812 316.289062 C 512.066406 315.875 512.519531 315.480469 512.988281 315.109375 C 513.460938 314.738281 513.949219 314.390625 514.453125 314.066406 C 514.957031 313.742188 515.476562 313.441406 516.007812 313.164062 C 516.539062 312.890625 517.085938 312.640625 517.640625 312.417969 C 518.199219 312.191406 518.765625 311.996094 519.339844 311.828125 C 519.914062 311.65625 520.496094 311.515625 521.085938 311.402344 C 521.675781 311.289062 522.265625 311.203125 522.863281 311.144531 C 523.460938 311.089844 524.058594 311.058594 524.660156 311.058594 C 525.257812 311.058594 525.859375 311.089844 526.453125 311.144531 C 527.050781 311.203125 527.644531 311.289062 528.234375 311.402344 C 528.824219 311.515625 529.40625 311.65625 529.980469 311.828125 C 530.554688 311.996094 531.121094 312.191406 531.679688 312.417969 C 532.234375 312.640625 532.78125 312.890625 533.3125 313.164062 C 533.84375 313.441406 534.363281 313.742188 534.867188 314.066406 C 535.371094 314.390625 535.859375 314.738281 536.328125 315.109375 C 536.800781 315.480469 537.253906 315.875 537.6875 316.289062 C 538.113281 316.71875 538.515625 317.164062 538.898438 317.632812 C 539.28125 318.097656 539.640625 318.582031 539.972656 319.085938 C 540.308594 319.585938 540.617188 320.105469 540.902344 320.636719 C 541.183594 321.167969 541.441406 321.714844 541.671875 322.273438 C 541.902344 322.828125 542.105469 323.398438 542.28125 323.976562 C 542.457031 324.550781 542.601562 325.136719 542.71875 325.730469 C 542.835938 326.320312 542.925781 326.917969 542.984375 327.519531 C 543.042969 328.117188 543.074219 328.71875 543.074219 329.324219 C 543.074219 329.925781 543.042969 330.527344 542.984375 331.128906 C 542.925781 331.730469 542.835938 332.328125 542.71875 332.917969 C 542.601562 333.511719 542.457031 334.09375 542.28125 334.671875 C 542.105469 335.25 541.902344 335.816406 541.671875 336.375 C 541.441406 336.933594 541.183594 337.476562 540.902344 338.011719 C 540.617188 338.542969 540.308594 339.0625 539.972656 339.5625 C 539.640625 340.066406 539.28125 340.550781 538.898438 341.015625 C 538.515625 341.484375 538.113281 341.929688 537.6875 342.359375 Z M 537.6875 342.359375 " fill-opacity="1" fill-rule="nonzero"/></svg>