<svg xmlns="http://www.w3.org/2000/svg" xmlns:xlink="http://www.w3.org/1999/xlink" width="1080" zoomAndPan="magnify" viewBox="0 0 810 809.999993" height="1080" preserveAspectRatio="xMidYMid meet" version="1.0"><defs><clipPath id="495619bfc5"><path d="M 36 323 L 768 323 L 768 753.136719 L 36 753.136719 Z M 36 323 " clip-rule="nonzero"/></clipPath></defs><rect x="-81" width="972" fill="#ffffff" y="-80.999999" height="971.999992" fill-opacity="1"/><rect x="-81" width="972" fill="#ffffff" y="-80.999999" height="971.999992" fill-opacity="1"/><g clip-path="url(#495619bfc5)"><path fill="#000000" d="M 748.476562 342.621094 C 736.191406 330.332031 719.84375 323.566406 702.460938 323.566406 C 685.078125 323.566406 668.730469 330.339844 656.445312 342.632812 L 565.566406 433.570312 C 560.777344 430.710938 555.609375 428.515625 550.234375 426.96875 C 549.785156 426.835938 549.335938 426.710938 548.90625 426.59375 C 546.722656 426.015625 544.519531 425.558594 542.273438 425.207031 C 541.671875 425.109375 541.058594 424.992188 540.449219 424.910156 C 537.726562 424.558594 534.964844 424.335938 532.164062 424.335938 L 532.152344 424.335938 C 532.152344 424.335938 532.152344 424.335938 532.144531 424.335938 L 251.347656 424.371094 C 225.132812 424.371094 200.238281 434.414062 181.007812 452.949219 L 42.046875 591.886719 C 38.226562 595.710938 36.078125 600.878906 36.078125 606.292969 C 36.078125 611.707031 38.21875 616.886719 42.046875 620.707031 L 168.539062 747.28125 C 172.359375 751.105469 177.535156 753.253906 182.9375 753.253906 C 188.347656 753.253906 193.523438 751.105469 197.34375 747.28125 L 255.78125 688.796875 L 467.632812 688.796875 C 485.015625 688.796875 501.34375 682.027344 513.640625 669.734375 L 748.503906 434.738281 C 773.855469 409.355469 773.855469 368.035156 748.476562 342.621094 Z M 719.699219 405.929688 L 484.835938 640.914062 C 480.226562 645.527344 474.125 648.054688 467.582031 648.054688 L 247.332031 648.054688 C 241.9375 648.054688 236.753906 650.203125 232.933594 654.023438 L 182.929688 704.058594 L 85.230469 606.300781 L 209.511719 482.039062 C 220.847656 471.121094 235.703125 465.113281 251.359375 465.113281 L 532.144531 465.070312 C 539.34375 465.070312 546.171875 468.386719 550.882812 474.171875 C 551.117188 474.476562 551.441406 474.699219 551.699219 474.980469 C 554.820312 479.1875 556.519531 484.144531 556.519531 489.429688 C 556.519531 495.949219 553.992188 502.074219 549.382812 506.6875 C 544.78125 511.28125 538.679688 513.816406 532.171875 513.816406 C 532.164062 513.816406 532.164062 513.816406 532.152344 513.816406 L 377.257812 513.816406 C 366.023438 513.816406 356.902344 522.933594 356.902344 534.183594 C 356.902344 545.441406 366.023438 554.5625 377.257812 554.5625 L 532.136719 554.5625 C 532.152344 554.5625 532.171875 554.5625 532.1875 554.5625 C 549.5625 554.5625 565.890625 547.789062 578.175781 535.488281 C 590.472656 523.1875 597.230469 506.828125 597.230469 489.4375 C 597.230469 480.851562 595.46875 472.390625 592.214844 464.53125 L 685.230469 371.441406 C 694.425781 362.253906 710.496094 362.242188 719.6875 371.441406 C 729.199219 380.949219 729.199219 396.414062 719.699219 405.929688 Z M 719.699219 405.929688 " fill-opacity="1" fill-rule="nonzero"/></g><path fill="#000000" d="M 385.015625 378.382812 C 385.679688 378.382812 386.328125 378.269531 386.984375 378.203125 C 387.414062 378.230469 387.828125 378.347656 388.269531 378.359375 C 389.582031 378.375 390.867188 378.382812 392.167969 378.382812 C 449.355469 378.382812 502.9375 356.21875 543.414062 315.707031 C 584.820312 274.289062 607.054688 219.175781 606.027344 160.484375 C 605.839844 149.523438 596.988281 140.675781 586.03125 140.476562 C 540.582031 139.667969 497.265625 152.914062 460.769531 178.199219 C 452.609375 135.152344 431.46875 95.765625 399.171875 64.546875 C 391.28125 56.921875 378.777344 56.910156 370.894531 64.546875 C 328.691406 105.300781 305.441406 160.015625 305.441406 218.601562 C 305.441406 277.203125 328.675781 331.914062 370.886719 372.664062 C 374.824219 376.476562 379.917969 378.382812 385.015625 378.382812 Z M 514.621094 286.898438 C 491.359375 310.160156 462.699219 325.835938 431.496094 333.027344 C 451.464844 301.617188 462.816406 265.539062 464.363281 227.574219 C 492.234375 201.640625 526.96875 185.796875 564.453125 182.046875 C 560.480469 221.6875 543.179688 258.328125 514.621094 286.898438 Z M 385.023438 109.210938 C 410.207031 140.046875 423.867188 178.199219 423.867188 218.621094 C 423.867188 259.03125 410.199219 297.175781 385.015625 328.011719 C 359.824219 297.183594 346.15625 259.03125 346.15625 218.601562 C 346.15625 178.179688 359.824219 140.035156 385.023438 109.210938 Z M 385.023438 109.210938 " fill-opacity="1" fill-rule="nonzero"/></svg>