<svg xmlns="http://www.w3.org/2000/svg" xmlns:xlink="http://www.w3.org/1999/xlink" width="1080" zoomAndPan="magnify" viewBox="0 0 810 809.999993" height="1080" preserveAspectRatio="xMidYMid meet" version="1.0"><defs><clipPath id="63777a3d40"><path d="M 347 726 L 463 726 L 463 750.210938 L 347 750.210938 Z M 347 726 " clip-rule="nonzero"/></clipPath><clipPath id="184cf81d40"><path d="M 392 59.570312 L 418 59.570312 L 418 150 L 392 150 Z M 392 59.570312 " clip-rule="nonzero"/></clipPath><clipPath id="b63812339e"><path d="M 72.089844 359 L 162 359 L 162 386 L 72.089844 386 Z M 72.089844 359 " clip-rule="nonzero"/></clipPath></defs><rect x="-81" width="972" fill="#ffffff" y="-80.999999" height="971.999992" fill-opacity="1"/><rect x="-81" width="972" fill="#ffffff" y="-80.999999" height="971.999992" fill-opacity="1"/><path fill="#000000" d="M 532.039062 487.050781 C 499.117188 524.4375 480.148438 571.257812 478.101562 619.730469 L 332 619.730469 C 330.242188 571.347656 311.382812 524.664062 278.441406 487.546875 C 250.71875 456.296875 235.613281 416.0625 235.902344 374.238281 C 236.214844 328.632812 254.242188 286.074219 286.664062 254.40625 C 319.109375 222.714844 362.152344 205.667969 407.808594 206.402344 C 499.53125 207.882812 574.152344 283.707031 574.152344 375.433594 C 574.152344 416.566406 559.199219 456.210938 532.039062 487.050781 Z M 408.195312 182.59375 C 356.132812 181.765625 307.042969 201.210938 270.015625 237.378906 C 233.011719 273.519531 212.441406 322.066406 212.078125 374.074219 C 211.75 421.78125 228.992188 467.691406 260.621094 503.34375 C 291.371094 538 308.308594 581.972656 308.308594 627.160156 L 308.308594 628.492188 C 308.308594 636.789062 315.066406 643.542969 323.359375 643.542969 L 486.6875 643.542969 C 494.980469 643.542969 501.738281 636.789062 501.738281 628.492188 C 501.738281 582.722656 518.847656 538.070312 549.921875 502.78125 C 580.90625 467.589844 597.976562 422.363281 597.976562 375.433594 C 597.976562 324.472656 578.273438 276.40625 542.496094 240.101562 C 506.765625 203.839844 459.0625 183.414062 408.195312 182.59375 " fill-opacity="1" fill-rule="nonzero"/><path fill="#000000" d="M 485.378906 655.289062 L 324.671875 655.289062 C 318.089844 655.289062 312.757812 660.617188 312.757812 667.191406 C 312.757812 673.765625 318.089844 679.097656 324.671875 679.097656 L 485.378906 679.097656 C 491.957031 679.097656 497.289062 673.765625 497.289062 667.191406 C 497.289062 660.617188 491.957031 655.289062 485.378906 655.289062 " fill-opacity="1" fill-rule="nonzero"/><path fill="#000000" d="M 467.910156 690.84375 L 342.136719 690.84375 C 335.558594 690.84375 330.226562 696.171875 330.226562 702.75 C 330.226562 709.328125 335.558594 714.65625 342.136719 714.65625 L 467.910156 714.65625 C 474.488281 714.65625 479.820312 709.328125 479.820312 702.75 C 479.820312 696.171875 474.488281 690.84375 467.910156 690.84375 " fill-opacity="1" fill-rule="nonzero"/><g clip-path="url(#63777a3d40)"><path fill="#000000" d="M 450.441406 726.402344 L 359.605469 726.402344 C 353.027344 726.402344 347.695312 731.730469 347.695312 738.308594 C 347.695312 744.878906 353.027344 750.210938 359.605469 750.210938 L 450.441406 750.210938 C 457.023438 750.210938 462.355469 744.878906 462.355469 738.308594 C 462.355469 731.730469 457.023438 726.402344 450.441406 726.402344 " fill-opacity="1" fill-rule="nonzero"/></g><g clip-path="url(#184cf81d40)"><path fill="#000000" d="M 405.96875 149.234375 C 406.089844 149.234375 406.203125 149.230469 406.324219 149.230469 C 412.898438 149.039062 418.074219 143.558594 417.882812 136.980469 L 415.976562 71.265625 C 415.789062 64.695312 410.300781 59.503906 403.726562 59.710938 C 397.152344 59.898438 391.972656 65.386719 392.167969 71.957031 L 394.074219 137.671875 C 394.261719 144.128906 399.550781 149.234375 405.96875 149.234375 " fill-opacity="1" fill-rule="nonzero"/></g><path fill="#000000" d="M 265.859375 172.539062 C 268.109375 176.191406 272.011719 178.203125 276.003906 178.203125 C 278.140625 178.203125 280.296875 177.625 282.246094 176.425781 C 287.84375 172.976562 289.585938 165.640625 286.132812 160.046875 L 251.609375 104.082031 C 248.15625 98.488281 240.820312 96.753906 235.222656 100.203125 C 229.621094 103.652344 227.882812 110.984375 231.335938 116.582031 L 265.859375 172.539062 " fill-opacity="1" fill-rule="nonzero"/><path fill="#000000" d="M 191.203125 241.457031 L 133.316406 210.246094 C 127.527344 207.128906 120.296875 209.289062 117.179688 215.078125 C 114.054688 220.863281 116.21875 228.085938 122.007812 231.207031 L 179.898438 262.414062 C 181.695312 263.382812 183.628906 263.847656 185.535156 263.847656 C 189.777344 263.847656 193.878906 261.578125 196.03125 257.585938 C 199.152344 251.800781 196.992188 244.578125 191.203125 241.457031 " fill-opacity="1" fill-rule="nonzero"/><g clip-path="url(#b63812339e)"><path fill="#000000" d="M 149.710938 359.40625 L 83.96875 361.308594 C 77.394531 361.5 72.21875 366.988281 72.410156 373.558594 C 72.597656 380.011719 77.886719 385.117188 84.3125 385.117188 C 84.425781 385.117188 84.546875 385.117188 84.660156 385.113281 L 150.402344 383.207031 C 156.984375 383.019531 162.15625 377.53125 161.96875 370.960938 C 161.777344 364.390625 156.277344 359.195312 149.710938 359.40625 " fill-opacity="1" fill-rule="nonzero"/></g><path fill="#000000" d="M 527.800781 176.425781 C 529.75 177.625 531.90625 178.203125 534.042969 178.203125 C 538.035156 178.203125 541.9375 176.191406 544.1875 172.539062 L 578.714844 116.582031 C 582.164062 110.984375 580.429688 103.652344 574.828125 100.203125 C 569.230469 96.746094 561.890625 98.488281 558.441406 104.082031 L 523.914062 160.046875 C 520.464844 165.640625 522.203125 172.976562 527.800781 176.425781 " fill-opacity="1" fill-rule="nonzero"/><path fill="#000000" d="M 692.871094 215.078125 C 689.75 209.289062 682.527344 207.128906 676.738281 210.246094 L 618.847656 241.457031 C 613.058594 244.578125 610.894531 251.800781 614.011719 257.585938 C 616.171875 261.578125 620.269531 263.847656 624.511719 263.847656 C 626.417969 263.847656 628.355469 263.382812 630.15625 262.414062 L 688.042969 231.207031 C 693.832031 228.085938 695.992188 220.863281 692.871094 215.078125 " fill-opacity="1" fill-rule="nonzero"/><path fill="#000000" d="M 726.078125 361.308594 L 660.332031 359.40625 C 653.746094 359.199219 648.273438 364.390625 648.082031 370.960938 C 647.886719 377.53125 653.070312 383.019531 659.644531 383.207031 L 725.386719 385.113281 C 725.507812 385.117188 725.621094 385.117188 725.742188 385.117188 C 732.15625 385.117188 737.453125 380.011719 737.636719 373.558594 C 737.832031 366.988281 732.652344 361.5 726.078125 361.308594 " fill-opacity="1" fill-rule="nonzero"/><path fill="#000000" d="M 406.945312 230.738281 C 367.34375 230.117188 330.003906 244.902344 301.835938 272.417969 C 273.6875 299.910156 258.03125 336.839844 257.761719 376.398438 C 257.714844 382.976562 263.011719 388.34375 269.585938 388.390625 C 269.617188 388.390625 269.644531 388.390625 269.675781 388.390625 C 276.210938 388.390625 281.535156 383.113281 281.582031 376.566406 C 281.808594 343.40625 294.917969 312.464844 318.480469 289.445312 C 342.070312 266.40625 373.359375 254.019531 406.5625 254.546875 C 406.628906 254.546875 406.691406 254.546875 406.761719 254.546875 C 413.246094 254.546875 418.558594 249.34375 418.667969 242.832031 C 418.769531 236.261719 413.523438 230.84375 406.945312 230.738281 " fill-opacity="1" fill-rule="nonzero"/></svg>