<svg xmlns="http://www.w3.org/2000/svg" xmlns:xlink="http://www.w3.org/1999/xlink" width="1080" zoomAndPan="magnify" viewBox="0 0 810 809.999993" height="1080" preserveAspectRatio="xMidYMid meet" version="1.0"><defs><clipPath id="158953e521"><path d="M 22.617188 58.46875 L 787.617188 58.46875 L 787.617188 751.46875 L 22.617188 751.46875 Z M 22.617188 58.46875 " clip-rule="nonzero"/></clipPath></defs><rect x="-81" width="972" fill="#ffffff" y="-80.999999" height="971.999992" fill-opacity="1"/><rect x="-81" width="972" fill="#ffffff" y="-80.999999" height="971.999992" fill-opacity="1"/><g clip-path="url(#158953e521)"><path fill="#000000" d="M 536.761719 680.578125 C 541.289062 685.097656 541.289062 692.4375 536.761719 696.957031 C 534.503906 699.214844 531.539062 700.359375 528.578125 700.359375 C 525.609375 700.359375 522.648438 699.214844 520.386719 696.957031 L 503.351562 679.929688 C 498.824219 675.402344 498.824219 668.070312 503.351562 663.542969 C 507.859375 659.023438 515.191406 659.023438 519.726562 663.542969 Z M 567.105469 592.222656 C 567.105469 598.628906 561.914062 603.804688 555.519531 603.804688 L 531.421875 603.804688 C 525.007812 603.804688 519.832031 598.628906 519.832031 592.222656 C 519.832031 585.832031 525.007812 580.640625 531.421875 580.640625 L 555.519531 580.640625 C 561.914062 580.640625 567.105469 585.832031 567.105469 592.222656 Z M 278.816406 603.804688 L 254.726562 603.804688 C 248.332031 603.804688 243.140625 598.628906 243.140625 592.21875 C 243.140625 585.832031 248.332031 580.640625 254.726562 580.640625 L 278.816406 580.640625 C 285.222656 580.640625 290.40625 585.828125 290.40625 592.21875 C 290.40625 598.628906 285.222656 603.804688 278.816406 603.804688 Z M 306.894531 663.542969 C 311.421875 668.070312 311.421875 675.402344 306.894531 679.929688 L 289.859375 696.957031 C 287.582031 699.214844 284.617188 700.359375 281.652344 700.359375 C 278.6875 700.359375 275.730469 699.214844 273.464844 696.957031 C 268.9375 692.4375 268.9375 685.097656 273.464844 680.578125 L 290.5 663.542969 C 295.027344 659.023438 302.367188 659.023438 306.894531 663.542969 Z M 416.707031 715.796875 L 416.707031 739.882812 C 416.707031 746.277344 411.511719 751.46875 405.117188 751.46875 C 398.722656 751.46875 393.539062 746.277344 393.539062 739.882812 L 393.539062 715.796875 C 393.539062 709.40625 398.722656 704.214844 405.117188 704.214844 C 411.511719 704.214844 416.707031 709.40625 416.707031 715.796875 Z M 442.292969 496.875 L 442.292969 511.238281 C 442.292969 517.628906 437.097656 522.820312 430.703125 522.820312 C 424.292969 522.820312 419.117188 517.628906 419.117188 511.238281 L 419.117188 496.875 C 419.117188 490.484375 424.292969 485.292969 430.703125 485.292969 C 437.097656 485.292969 442.292969 490.484375 442.292969 496.875 Z M 379.542969 522.816406 C 373.148438 522.816406 367.953125 517.628906 367.953125 511.234375 L 367.953125 496.871094 C 367.953125 490.480469 373.148438 485.292969 379.542969 485.292969 C 385.9375 485.292969 391.121094 490.480469 391.121094 496.871094 L 391.121094 511.234375 C 391.121094 517.625 385.9375 522.816406 379.542969 522.816406 Z M 438.753906 625.789062 C 438.753906 632.179688 433.558594 637.371094 427.164062 637.371094 L 422.5 637.371094 C 416.105469 637.371094 410.917969 632.183594 410.917969 625.789062 C 410.917969 619.382812 416.105469 614.210938 422.5 614.210938 L 427.164062 614.210938 C 433.558594 614.210938 438.753906 619.382812 438.753906 625.789062 Z M 400.007812 625.789062 C 400.007812 632.179688 394.820312 637.371094 388.417969 637.371094 L 383.769531 637.371094 C 377.367188 637.371094 372.191406 632.183594 372.191406 625.789062 C 372.191406 619.382812 377.367188 614.210938 383.769531 614.210938 L 388.417969 614.210938 C 394.820312 614.210938 400.007812 619.382812 400.007812 625.789062 Z M 464.070312 501.890625 C 464.132812 498.617188 465.566406 495.53125 468.039062 493.371094 C 470.511719 491.222656 473.773438 490.21875 477.023438 490.59375 C 479.960938 490.945312 483.011719 491.117188 486.050781 491.117188 C 508.753906 491.117188 522.667969 481.867188 522.667969 476.820312 C 522.667969 471.785156 508.757812 462.523438 486.050781 462.523438 C 481.867188 462.523438 477.742188 462.84375 473.792969 463.492188 C 470.742188 464 467.609375 463.261719 465.101562 461.441406 C 462.605469 459.632812 460.921875 456.882812 460.457031 453.824219 C 459.453125 447.292969 458.234375 440.699219 456.792969 434.105469 L 447.722656 450.523438 C 445.691406 454.210938 441.8125 456.496094 437.59375 456.496094 L 372.660156 456.496094 C 368.441406 456.496094 364.546875 454.210938 362.503906 450.523438 L 353.441406 434.105469 C 352 440.699219 350.785156 447.292969 349.78125 453.824219 C 349.316406 456.882812 347.652344 459.628906 345.140625 461.441406 C 342.625 463.261719 339.5 464 336.445312 463.492188 C 332.511719 462.84375 328.386719 462.523438 324.203125 462.523438 C 301.472656 462.523438 287.566406 471.785156 287.566406 476.820312 C 287.566406 481.867188 301.472656 491.117188 324.203125 491.117188 C 327.242188 491.117188 330.273438 490.945312 333.21875 490.59375 C 333.664062 490.546875 334.128906 490.511719 334.574219 490.511719 C 337.371094 490.511719 340.078125 491.519531 342.203125 493.371094 C 344.667969 495.53125 346.097656 498.621094 346.164062 501.890625 C 346.535156 524.1875 354.949219 548.015625 363.097656 571.054688 C 365.488281 577.800781 367.949219 584.78125 370.132812 591.53125 C 371.882812 596.917969 369.472656 602.789062 364.429688 605.382812 C 353.332031 611.109375 351.0625 617.082031 351.0625 624.308594 C 351.0625 636.570312 374.863281 651.484375 404.425781 651.640625 C 404.574219 651.640625 404.722656 651.640625 404.863281 651.640625 C 424.128906 651.640625 443.683594 645.03125 453.648438 635.132812 C 457.328125 631.476562 459.195312 627.832031 459.195312 624.308594 C 459.195312 617.082031 456.917969 611.105469 445.8125 605.378906 C 440.785156 602.785156 438.367188 596.914062 440.113281 591.527344 C 442.296875 584.78125 444.761719 577.800781 447.140625 571.054688 C 455.277344 548.015625 463.695312 524.1875 464.070312 501.890625 Z M 486.464844 514.277344 C 520.339844 514.152344 545.835938 498.09375 545.835938 476.816406 C 545.835938 455.460938 520.128906 439.355469 486.046875 439.355469 C 484.535156 439.355469 483.019531 439.390625 481.503906 439.464844 C 479.050781 426.265625 475.777344 412.953125 471.746094 399.765625 C 470.386719 395.320312 466.492188 392.125 461.855469 391.644531 C 457.238281 391.148438 452.777344 393.480469 450.519531 397.558594 L 430.753906 433.335938 L 379.480469 433.335938 L 359.714844 397.558594 C 357.472656 393.5 353.003906 391.148438 348.375 391.644531 C 343.746094 392.125 339.863281 395.320312 338.503906 399.765625 C 334.453125 412.953125 331.179688 426.265625 328.71875 439.464844 C 327.222656 439.390625 325.710938 439.355469 324.203125 439.355469 C 290.105469 439.355469 264.398438 455.460938 264.398438 476.816406 C 264.398438 498.09375 289.898438 514.15625 323.785156 514.277344 C 326.210938 536.21875 333.84375 557.792969 341.25 578.773438 C 342.625 582.648438 343.953125 586.402344 345.226562 590.105469 C 333.710938 598.664062 327.894531 610.132812 327.894531 624.308594 C 327.894531 654.277344 367.402344 674.613281 404.324219 674.800781 C 404.492188 674.800781 404.679688 674.800781 404.847656 674.800781 C 430.246094 674.800781 455.746094 665.707031 469.992188 651.546875 C 478.089844 643.5 482.363281 634.082031 482.363281 624.308594 C 482.363281 610.132812 476.535156 598.664062 465.011719 590.105469 C 466.292969 586.402344 467.625 582.648438 469 578.757812 C 476.390625 557.792969 484.03125 536.203125 486.464844 514.277344 Z M 230.285156 215.351562 L 230.285156 196.097656 C 230.285156 189.703125 235.460938 184.519531 241.875 184.519531 C 248.269531 184.519531 253.464844 189.703125 253.464844 196.097656 L 253.464844 215.351562 C 253.464844 221.746094 248.265625 226.933594 241.875 226.933594 C 235.460938 226.933594 230.285156 221.746094 230.285156 215.351562 Z M 161.671875 215.351562 L 161.671875 196.097656 C 161.671875 189.703125 166.867188 184.519531 173.25 184.519531 C 179.65625 184.519531 184.839844 189.703125 184.839844 196.097656 L 184.839844 215.351562 C 184.839844 221.746094 179.65625 226.933594 173.25 226.933594 C 166.867188 226.933594 161.671875 221.746094 161.671875 215.351562 Z M 190.054688 368.992188 C 190.054688 375.382812 184.859375 380.570312 178.464844 380.570312 L 170.519531 380.570312 C 164.117188 380.570312 158.9375 375.382812 158.9375 368.992188 C 158.9375 362.582031 164.117188 357.410156 170.519531 357.410156 L 178.464844 357.410156 C 184.859375 357.414062 190.054688 362.582031 190.054688 368.992188 Z M 256.199219 368.992188 C 256.199219 375.382812 251 380.570312 244.609375 380.570312 L 236.671875 380.570312 C 230.257812 380.570312 225.082031 375.382812 225.082031 368.992188 C 225.082031 362.582031 230.257812 357.410156 236.671875 357.410156 L 244.609375 357.410156 C 251 357.414062 256.199219 362.582031 256.199219 368.992188 Z M 579.953125 196.097656 L 579.953125 215.351562 C 579.953125 221.746094 574.765625 226.933594 568.371094 226.933594 C 561.976562 226.933594 556.785156 221.746094 556.785156 215.351562 L 556.785156 196.097656 C 556.785156 189.703125 561.976562 184.519531 568.371094 184.519531 C 574.765625 184.519531 579.953125 189.703125 579.953125 196.097656 Z M 648.558594 196.097656 L 648.558594 215.351562 C 648.558594 221.746094 643.359375 226.933594 636.96875 226.933594 C 630.574219 226.933594 625.386719 221.746094 625.386719 215.351562 L 625.386719 196.097656 C 625.386719 189.703125 630.574219 184.519531 636.96875 184.519531 C 643.359375 184.519531 648.558594 189.703125 648.558594 196.097656 Z M 651.308594 368.992188 C 651.308594 375.382812 646.113281 380.570312 639.71875 380.570312 L 631.761719 380.570312 C 625.367188 380.570312 620.183594 375.382812 620.183594 368.992188 C 620.183594 362.582031 625.367188 357.410156 631.761719 357.410156 L 639.71875 357.410156 C 646.113281 357.414062 651.308594 362.582031 651.308594 368.992188 Z M 585.164062 368.992188 C 585.164062 375.382812 579.96875 380.570312 573.574219 380.570312 L 565.621094 380.570312 C 559.226562 380.570312 554.03125 375.382812 554.03125 368.992188 C 554.03125 362.582031 559.226562 357.410156 565.621094 357.410156 L 573.574219 357.410156 C 579.96875 357.414062 585.164062 362.582031 585.164062 368.992188 Z M 711.207031 192.332031 C 743.601562 192.332031 764.273438 178.632812 764.273438 169.203125 C 764.273438 159.765625 743.601562 146.066406 711.207031 146.066406 C 705.386719 146.066406 699.644531 146.53125 694.125 147.445312 C 691.066406 147.9375 687.945312 147.199219 685.445312 145.390625 C 682.945312 143.570312 681.253906 140.820312 680.796875 137.761719 C 678.929688 125.578125 676.503906 113.273438 673.519531 100.964844 L 656.355469 132.019531 C 654.320312 135.707031 650.445312 138.007812 646.222656 138.007812 L 559.117188 138.007812 C 554.894531 138.007812 551.023438 135.707031 548.984375 132.019531 L 531.820312 100.964844 C 528.835938 113.273438 526.410156 125.578125 524.542969 137.761719 C 524.078125 140.820312 522.414062 143.566406 519.894531 145.390625 C 517.398438 147.199219 514.273438 147.9375 511.214844 147.445312 C 505.703125 146.53125 499.953125 146.066406 494.132812 146.066406 C 461.734375 146.066406 441.066406 159.765625 441.066406 169.203125 C 441.066406 178.632812 461.734375 192.332031 494.132812 192.332031 C 498.363281 192.332031 502.589844 192.085938 506.699219 191.605469 C 509.960938 191.203125 513.222656 192.226562 515.695312 194.386719 C 518.148438 196.53125 519.585938 199.632812 519.644531 202.90625 C 519.96875 222.472656 522.90625 234.5625 528.203125 251.949219 L 528.203125 251.964844 C 529.113281 254.929688 530.089844 258.046875 531.121094 261.402344 C 533.332031 268.425781 535.824219 276.394531 538.554688 285.8125 L 540.125 291.21875 C 542.804688 300.417969 545.394531 309.28125 548.164062 318.285156 C 564.148438 312.386719 583 309.203125 602.671875 309.203125 C 622.339844 309.203125 641.1875 312.386719 657.171875 318.285156 C 659.941406 309.28125 662.515625 300.433594 665.199219 291.25 L 666.777344 285.8125 C 669.519531 276.394531 672.019531 268.429688 674.214844 261.402344 C 681.359375 238.457031 685.300781 225.824219 685.691406 202.910156 C 685.746094 199.636719 687.1875 196.53125 689.660156 194.386719 C 692.113281 192.226562 695.375 191.203125 698.628906 191.609375 C 702.746094 192.085938 706.976562 192.332031 711.207031 192.332031 Z M 602.671875 401.664062 C 558.910156 401.664062 526.214844 383.367188 526.214844 367.015625 C 526.214844 350.648438 558.910156 332.367188 602.671875 332.367188 C 646.417969 332.367188 679.125 350.648438 679.125 367.015625 C 679.125 383.367188 646.421875 401.664062 602.671875 401.664062 Z M 207.5625 401.664062 C 163.800781 401.664062 131.105469 383.367188 131.105469 367.015625 C 131.105469 350.648438 163.800781 332.367188 207.5625 332.367188 C 251.328125 332.367188 284.03125 350.648438 284.03125 367.015625 C 284.03125 383.367188 251.328125 401.664062 207.5625 401.664062 Z M 120.585938 194.386719 C 123.046875 196.53125 124.488281 199.632812 124.542969 202.90625 C 124.921875 225.824219 128.863281 238.457031 136.027344 261.398438 C 138.222656 268.425781 140.714844 276.390625 143.457031 285.8125 L 145.035156 291.25 C 147.703125 300.433594 150.289062 309.28125 153.054688 318.28125 C 169.058594 312.386719 187.898438 309.203125 207.5625 309.203125 C 227.230469 309.203125 246.078125 312.386719 262.082031 318.28125 C 264.851562 309.265625 267.445312 300.390625 270.109375 291.167969 L 271.671875 285.8125 C 274.421875 276.390625 276.914062 268.425781 279.105469 261.398438 C 286.253906 238.453125 290.203125 225.820312 290.59375 202.90625 C 290.640625 199.632812 292.082031 196.53125 294.550781 194.386719 C 297.023438 192.222656 300.277344 191.203125 303.519531 191.605469 C 307.648438 192.085938 311.882812 192.332031 316.09375 192.332031 C 348.492188 192.332031 369.160156 178.632812 369.160156 169.203125 C 369.160156 159.765625 348.492188 146.066406 316.09375 146.066406 C 310.273438 146.066406 304.523438 146.53125 299.011719 147.445312 C 295.972656 147.9375 292.832031 147.199219 290.332031 145.390625 C 287.832031 143.570312 286.15625 140.820312 285.683594 137.761719 C 283.824219 125.578125 281.390625 113.273438 278.425781 100.964844 L 261.257812 132.019531 C 259.214844 135.707031 255.328125 138.007812 251.109375 138.007812 L 164.019531 138.007812 C 159.800781 138.007812 155.90625 135.707031 153.871094 132.019531 L 136.707031 100.964844 C 133.742188 113.273438 131.308594 125.578125 129.4375 137.761719 C 128.972656 140.820312 127.300781 143.566406 124.792969 145.390625 C 122.292969 147.199219 119.160156 147.9375 116.113281 147.445312 C 110.601562 146.53125 104.847656 146.066406 99.019531 146.066406 C 66.632812 146.066406 45.960938 159.765625 45.960938 169.203125 C 45.960938 178.632812 66.632812 192.332031 99.019531 192.332031 C 103.25 192.332031 107.488281 192.085938 111.59375 191.605469 C 114.851562 191.203125 118.113281 192.222656 120.585938 194.386719 Z M 711.207031 122.910156 C 754.664062 122.910156 787.441406 142.8125 787.441406 169.203125 C 787.441406 195.589844 754.664062 215.492188 711.207031 215.492188 C 710.238281 215.492188 709.28125 215.476562 708.304688 215.460938 C 706.839844 234.621094 702.617188 248.121094 696.335938 268.285156 C 694.152344 275.21875 691.714844 283.09375 689.03125 292.296875 L 687.453125 297.714844 C 684.394531 308.230469 681.457031 318.296875 678.203125 328.738281 C 693.816406 339.082031 702.292969 352.4375 702.292969 367.011719 C 702.292969 383.875 690.945312 399.113281 670.324219 409.957031 C 652.042969 419.542969 628.027344 424.824219 602.671875 424.824219 C 577.3125 424.824219 553.289062 419.542969 535.015625 409.957031 C 514.394531 399.113281 503.046875 383.875 503.046875 367.011719 C 503.046875 352.4375 511.539062 339.082031 527.144531 328.738281 C 523.882812 318.296875 520.945312 308.214844 517.886719 297.683594 L 516.308594 292.296875 C 513.621094 283.09375 511.179688 275.21875 509.019531 268.285156 C 508.882812 267.835938 508.742188 267.417969 508.601562 266.988281 L 416.707031 266.988281 L 416.707031 389.171875 C 416.707031 395.5625 411.511719 400.75 405.117188 400.75 C 398.722656 400.75 393.539062 395.566406 393.539062 389.171875 L 393.539062 266.988281 L 301.625 266.988281 C 301.503906 267.417969 301.363281 267.835938 301.226562 268.285156 C 299.058594 275.21875 296.605469 283.09375 293.921875 292.296875 L 292.367188 297.636719 C 289.292969 308.183594 286.367188 318.28125 283.105469 328.734375 C 298.707031 339.082031 307.203125 352.433594 307.203125 367.011719 C 307.203125 383.875 295.835938 399.113281 275.210938 409.953125 C 256.953125 419.542969 232.9375 424.824219 207.5625 424.824219 C 182.199219 424.824219 158.175781 419.542969 139.925781 409.953125 C 119.292969 399.113281 107.933594 383.875 107.933594 367.011719 C 107.933594 352.433594 116.429688 339.082031 132.035156 328.734375 C 128.78125 318.292969 125.84375 308.230469 122.785156 297.710938 L 121.207031 292.292969 C 118.519531 283.089844 116.066406 275.214844 113.910156 268.28125 C 107.609375 248.117188 103.398438 234.621094 101.921875 215.460938 C 100.953125 215.476562 99.988281 215.488281 99.023438 215.488281 C 55.5625 215.488281 22.792969 195.589844 22.792969 169.199219 C 22.792969 142.8125 55.5625 122.90625 99.023438 122.90625 C 102.15625 122.90625 105.277344 123.015625 108.363281 123.246094 C 111.699219 104.5625 116.269531 85.707031 121.984375 67.027344 C 123.351562 62.578125 127.246094 59.386719 131.863281 58.886719 C 136.492188 58.410156 140.953125 60.742188 143.214844 64.816406 L 170.851562 114.847656 L 244.28125 114.847656 L 271.921875 64.816406 C 274.171875 60.742188 278.640625 58.410156 283.261719 58.886719 C 287.890625 59.386719 291.765625 62.578125 293.140625 67.027344 C 298.855469 85.707031 303.4375 104.566406 306.773438 123.246094 C 309.859375 123.015625 312.972656 122.90625 316.09375 122.90625 C 359.570312 122.90625 392.332031 142.8125 392.332031 169.199219 C 392.332031 195.589844 359.570312 215.488281 316.09375 215.488281 C 315.140625 215.488281 314.171875 215.476562 313.207031 215.460938 C 312.394531 225.929688 310.769531 234.714844 308.4375 243.824219 L 405.09375 243.824219 C 405.09375 243.824219 405.109375 243.808594 405.117188 243.808594 C 405.117188 243.808594 405.136719 243.824219 405.148438 243.824219 L 501.800781 243.824219 C 499.476562 234.714844 497.832031 225.929688 497.035156 215.460938 C 496.058594 215.476562 495.101562 215.488281 494.136719 215.488281 C 450.675781 215.488281 417.898438 195.589844 417.898438 169.199219 C 417.898438 142.8125 450.675781 122.90625 494.136719 122.90625 C 497.265625 122.90625 500.390625 123.015625 503.476562 123.246094 C 506.8125 104.5625 511.382812 85.695312 517.101562 67.027344 C 518.457031 62.578125 522.351562 59.386719 526.96875 58.886719 C 531.609375 58.410156 536.070312 60.742188 538.328125 64.816406 L 565.96875 114.847656 L 639.386719 114.847656 L 667.015625 64.816406 C 669.277344 60.742188 673.738281 58.410156 678.375 58.886719 C 682.992188 59.386719 686.886719 62.578125 688.246094 67.027344 C 693.960938 85.695312 698.53125 104.566406 701.871094 123.246094 C 704.949219 123.015625 708.074219 122.910156 711.207031 122.910156 Z M 711.207031 122.910156 " fill-opacity="1" fill-rule="evenodd"/></g></svg>